%TF.GenerationSoftware,KiCad,Pcbnew,7.0.5-0*%
%TF.CreationDate,2023-08-11T11:25:24-04:00*%
%TF.ProjectId,AmpSim,416d7053-696d-42e6-9b69-6361645f7063,rev?*%
%TF.SameCoordinates,Original*%
%TF.FileFunction,Soldermask,Bot*%
%TF.FilePolarity,Negative*%
%FSLAX46Y46*%
G04 Gerber Fmt 4.6, Leading zero omitted, Abs format (unit mm)*
G04 Created by KiCad (PCBNEW 7.0.5-0) date 2023-08-11 11:25:24*
%MOMM*%
%LPD*%
G01*
G04 APERTURE LIST*
%ADD10C,2.800000*%
%ADD11C,1.800000*%
%ADD12R,1.800000X1.800000*%
%ADD13C,3.240000*%
%ADD14R,1.700000X1.700000*%
%ADD15O,1.700000X1.700000*%
G04 APERTURE END LIST*
D10*
%TO.C,SW1*%
X270500000Y-212900000D03*
X270500000Y-208200000D03*
X270500000Y-203500000D03*
%TD*%
D11*
%TO.C,RV2*%
X133780000Y-215725000D03*
X131280000Y-215725000D03*
D12*
X128780000Y-215725000D03*
D13*
X136080000Y-208225000D03*
X126480000Y-208225000D03*
%TD*%
D11*
%TO.C,RV4*%
X274000000Y-171000000D03*
X271500000Y-171000000D03*
D12*
X269000000Y-171000000D03*
D13*
X276300000Y-163500000D03*
X266700000Y-163500000D03*
%TD*%
D11*
%TO.C,RV6*%
X64220000Y-215735000D03*
X61720000Y-215735000D03*
D12*
X59220000Y-215735000D03*
D13*
X66520000Y-208235000D03*
X56920000Y-208235000D03*
%TD*%
D11*
%TO.C,RV5*%
X203390000Y-215785000D03*
X200890000Y-215785000D03*
D12*
X198390000Y-215785000D03*
D13*
X205690000Y-208285000D03*
X196090000Y-208285000D03*
%TD*%
D11*
%TO.C,RV1*%
X168570000Y-215765000D03*
X166070000Y-215765000D03*
D12*
X163570000Y-215765000D03*
D13*
X170870000Y-208265000D03*
X161270000Y-208265000D03*
%TD*%
D11*
%TO.C,RV3*%
X99030000Y-215765000D03*
X96530000Y-215765000D03*
D12*
X94030000Y-215765000D03*
D13*
X101330000Y-208265000D03*
X91730000Y-208265000D03*
%TD*%
%TO.C,RV7*%
X230890000Y-208260000D03*
X240490000Y-208260000D03*
D12*
X233190000Y-215760000D03*
D11*
X235690000Y-215760000D03*
X238190000Y-215760000D03*
%TD*%
D14*
%TO.C,J2*%
X261160000Y-195860000D03*
D15*
X261160000Y-198400000D03*
X261160000Y-200940000D03*
X261160000Y-203480000D03*
X261160000Y-206020000D03*
X261160000Y-208560000D03*
X261160000Y-211100000D03*
%TD*%
D14*
%TO.C,J1*%
X276400000Y-195840000D03*
D15*
X276400000Y-198380000D03*
X276400000Y-200920000D03*
X276400000Y-203460000D03*
X276400000Y-206000000D03*
X276400000Y-208540000D03*
X276400000Y-211080000D03*
%TD*%
M02*
