%TF.GenerationSoftware,KiCad,Pcbnew,7.0.5-0*%
%TF.CreationDate,2023-08-11T11:25:24-04:00*%
%TF.ProjectId,AmpSim,416d7053-696d-42e6-9b69-6361645f7063,rev?*%
%TF.SameCoordinates,Original*%
%TF.FileFunction,Legend,Top*%
%TF.FilePolarity,Positive*%
%FSLAX46Y46*%
G04 Gerber Fmt 4.6, Leading zero omitted, Abs format (unit mm)*
G04 Created by KiCad (PCBNEW 7.0.5-0) date 2023-08-11 11:25:24*
%MOMM*%
%LPD*%
G01*
G04 APERTURE LIST*
%ADD10C,0.254000*%
%ADD11C,0.150000*%
%ADD12C,0.200000*%
%ADD13C,0.400000*%
%ADD14C,0.120000*%
G04 APERTURE END LIST*
D10*
%TO.C,SW1*%
X268706666Y-217113842D02*
X268888095Y-217174318D01*
X268888095Y-217174318D02*
X269190476Y-217174318D01*
X269190476Y-217174318D02*
X269311428Y-217113842D01*
X269311428Y-217113842D02*
X269371904Y-217053365D01*
X269371904Y-217053365D02*
X269432381Y-216932413D01*
X269432381Y-216932413D02*
X269432381Y-216811461D01*
X269432381Y-216811461D02*
X269371904Y-216690508D01*
X269371904Y-216690508D02*
X269311428Y-216630032D01*
X269311428Y-216630032D02*
X269190476Y-216569556D01*
X269190476Y-216569556D02*
X268948571Y-216509080D01*
X268948571Y-216509080D02*
X268827619Y-216448603D01*
X268827619Y-216448603D02*
X268767142Y-216388127D01*
X268767142Y-216388127D02*
X268706666Y-216267175D01*
X268706666Y-216267175D02*
X268706666Y-216146222D01*
X268706666Y-216146222D02*
X268767142Y-216025270D01*
X268767142Y-216025270D02*
X268827619Y-215964794D01*
X268827619Y-215964794D02*
X268948571Y-215904318D01*
X268948571Y-215904318D02*
X269250952Y-215904318D01*
X269250952Y-215904318D02*
X269432381Y-215964794D01*
X269855714Y-215904318D02*
X270158095Y-217174318D01*
X270158095Y-217174318D02*
X270400000Y-216267175D01*
X270400000Y-216267175D02*
X270641905Y-217174318D01*
X270641905Y-217174318D02*
X270944286Y-215904318D01*
X272093334Y-217174318D02*
X271367619Y-217174318D01*
X271730476Y-217174318D02*
X271730476Y-215904318D01*
X271730476Y-215904318D02*
X271609524Y-216085746D01*
X271609524Y-216085746D02*
X271488572Y-216206699D01*
X271488572Y-216206699D02*
X271367619Y-216267175D01*
D11*
%TO.C,RV2*%
X124434819Y-209870238D02*
X123958628Y-210203571D01*
X124434819Y-210441666D02*
X123434819Y-210441666D01*
X123434819Y-210441666D02*
X123434819Y-210060714D01*
X123434819Y-210060714D02*
X123482438Y-209965476D01*
X123482438Y-209965476D02*
X123530057Y-209917857D01*
X123530057Y-209917857D02*
X123625295Y-209870238D01*
X123625295Y-209870238D02*
X123768152Y-209870238D01*
X123768152Y-209870238D02*
X123863390Y-209917857D01*
X123863390Y-209917857D02*
X123911009Y-209965476D01*
X123911009Y-209965476D02*
X123958628Y-210060714D01*
X123958628Y-210060714D02*
X123958628Y-210441666D01*
X123434819Y-209584523D02*
X124434819Y-209251190D01*
X124434819Y-209251190D02*
X123434819Y-208917857D01*
X123530057Y-208632142D02*
X123482438Y-208584523D01*
X123482438Y-208584523D02*
X123434819Y-208489285D01*
X123434819Y-208489285D02*
X123434819Y-208251190D01*
X123434819Y-208251190D02*
X123482438Y-208155952D01*
X123482438Y-208155952D02*
X123530057Y-208108333D01*
X123530057Y-208108333D02*
X123625295Y-208060714D01*
X123625295Y-208060714D02*
X123720533Y-208060714D01*
X123720533Y-208060714D02*
X123863390Y-208108333D01*
X123863390Y-208108333D02*
X124434819Y-208679761D01*
X124434819Y-208679761D02*
X124434819Y-208060714D01*
%TO.C,RV4*%
X264654819Y-165145238D02*
X264178628Y-165478571D01*
X264654819Y-165716666D02*
X263654819Y-165716666D01*
X263654819Y-165716666D02*
X263654819Y-165335714D01*
X263654819Y-165335714D02*
X263702438Y-165240476D01*
X263702438Y-165240476D02*
X263750057Y-165192857D01*
X263750057Y-165192857D02*
X263845295Y-165145238D01*
X263845295Y-165145238D02*
X263988152Y-165145238D01*
X263988152Y-165145238D02*
X264083390Y-165192857D01*
X264083390Y-165192857D02*
X264131009Y-165240476D01*
X264131009Y-165240476D02*
X264178628Y-165335714D01*
X264178628Y-165335714D02*
X264178628Y-165716666D01*
X263654819Y-164859523D02*
X264654819Y-164526190D01*
X264654819Y-164526190D02*
X263654819Y-164192857D01*
X263988152Y-163430952D02*
X264654819Y-163430952D01*
X263607200Y-163669047D02*
X264321485Y-163907142D01*
X264321485Y-163907142D02*
X264321485Y-163288095D01*
%TO.C,RV6*%
X54874819Y-209880238D02*
X54398628Y-210213571D01*
X54874819Y-210451666D02*
X53874819Y-210451666D01*
X53874819Y-210451666D02*
X53874819Y-210070714D01*
X53874819Y-210070714D02*
X53922438Y-209975476D01*
X53922438Y-209975476D02*
X53970057Y-209927857D01*
X53970057Y-209927857D02*
X54065295Y-209880238D01*
X54065295Y-209880238D02*
X54208152Y-209880238D01*
X54208152Y-209880238D02*
X54303390Y-209927857D01*
X54303390Y-209927857D02*
X54351009Y-209975476D01*
X54351009Y-209975476D02*
X54398628Y-210070714D01*
X54398628Y-210070714D02*
X54398628Y-210451666D01*
X53874819Y-209594523D02*
X54874819Y-209261190D01*
X54874819Y-209261190D02*
X53874819Y-208927857D01*
X53874819Y-208165952D02*
X53874819Y-208356428D01*
X53874819Y-208356428D02*
X53922438Y-208451666D01*
X53922438Y-208451666D02*
X53970057Y-208499285D01*
X53970057Y-208499285D02*
X54112914Y-208594523D01*
X54112914Y-208594523D02*
X54303390Y-208642142D01*
X54303390Y-208642142D02*
X54684342Y-208642142D01*
X54684342Y-208642142D02*
X54779580Y-208594523D01*
X54779580Y-208594523D02*
X54827200Y-208546904D01*
X54827200Y-208546904D02*
X54874819Y-208451666D01*
X54874819Y-208451666D02*
X54874819Y-208261190D01*
X54874819Y-208261190D02*
X54827200Y-208165952D01*
X54827200Y-208165952D02*
X54779580Y-208118333D01*
X54779580Y-208118333D02*
X54684342Y-208070714D01*
X54684342Y-208070714D02*
X54446247Y-208070714D01*
X54446247Y-208070714D02*
X54351009Y-208118333D01*
X54351009Y-208118333D02*
X54303390Y-208165952D01*
X54303390Y-208165952D02*
X54255771Y-208261190D01*
X54255771Y-208261190D02*
X54255771Y-208451666D01*
X54255771Y-208451666D02*
X54303390Y-208546904D01*
X54303390Y-208546904D02*
X54351009Y-208594523D01*
X54351009Y-208594523D02*
X54446247Y-208642142D01*
%TO.C,RV5*%
X194044819Y-209930238D02*
X193568628Y-210263571D01*
X194044819Y-210501666D02*
X193044819Y-210501666D01*
X193044819Y-210501666D02*
X193044819Y-210120714D01*
X193044819Y-210120714D02*
X193092438Y-210025476D01*
X193092438Y-210025476D02*
X193140057Y-209977857D01*
X193140057Y-209977857D02*
X193235295Y-209930238D01*
X193235295Y-209930238D02*
X193378152Y-209930238D01*
X193378152Y-209930238D02*
X193473390Y-209977857D01*
X193473390Y-209977857D02*
X193521009Y-210025476D01*
X193521009Y-210025476D02*
X193568628Y-210120714D01*
X193568628Y-210120714D02*
X193568628Y-210501666D01*
X193044819Y-209644523D02*
X194044819Y-209311190D01*
X194044819Y-209311190D02*
X193044819Y-208977857D01*
X193044819Y-208168333D02*
X193044819Y-208644523D01*
X193044819Y-208644523D02*
X193521009Y-208692142D01*
X193521009Y-208692142D02*
X193473390Y-208644523D01*
X193473390Y-208644523D02*
X193425771Y-208549285D01*
X193425771Y-208549285D02*
X193425771Y-208311190D01*
X193425771Y-208311190D02*
X193473390Y-208215952D01*
X193473390Y-208215952D02*
X193521009Y-208168333D01*
X193521009Y-208168333D02*
X193616247Y-208120714D01*
X193616247Y-208120714D02*
X193854342Y-208120714D01*
X193854342Y-208120714D02*
X193949580Y-208168333D01*
X193949580Y-208168333D02*
X193997200Y-208215952D01*
X193997200Y-208215952D02*
X194044819Y-208311190D01*
X194044819Y-208311190D02*
X194044819Y-208549285D01*
X194044819Y-208549285D02*
X193997200Y-208644523D01*
X193997200Y-208644523D02*
X193949580Y-208692142D01*
%TO.C,RV1*%
X159224819Y-209910238D02*
X158748628Y-210243571D01*
X159224819Y-210481666D02*
X158224819Y-210481666D01*
X158224819Y-210481666D02*
X158224819Y-210100714D01*
X158224819Y-210100714D02*
X158272438Y-210005476D01*
X158272438Y-210005476D02*
X158320057Y-209957857D01*
X158320057Y-209957857D02*
X158415295Y-209910238D01*
X158415295Y-209910238D02*
X158558152Y-209910238D01*
X158558152Y-209910238D02*
X158653390Y-209957857D01*
X158653390Y-209957857D02*
X158701009Y-210005476D01*
X158701009Y-210005476D02*
X158748628Y-210100714D01*
X158748628Y-210100714D02*
X158748628Y-210481666D01*
X158224819Y-209624523D02*
X159224819Y-209291190D01*
X159224819Y-209291190D02*
X158224819Y-208957857D01*
X159224819Y-208100714D02*
X159224819Y-208672142D01*
X159224819Y-208386428D02*
X158224819Y-208386428D01*
X158224819Y-208386428D02*
X158367676Y-208481666D01*
X158367676Y-208481666D02*
X158462914Y-208576904D01*
X158462914Y-208576904D02*
X158510533Y-208672142D01*
%TO.C,RV3*%
X89684819Y-209910238D02*
X89208628Y-210243571D01*
X89684819Y-210481666D02*
X88684819Y-210481666D01*
X88684819Y-210481666D02*
X88684819Y-210100714D01*
X88684819Y-210100714D02*
X88732438Y-210005476D01*
X88732438Y-210005476D02*
X88780057Y-209957857D01*
X88780057Y-209957857D02*
X88875295Y-209910238D01*
X88875295Y-209910238D02*
X89018152Y-209910238D01*
X89018152Y-209910238D02*
X89113390Y-209957857D01*
X89113390Y-209957857D02*
X89161009Y-210005476D01*
X89161009Y-210005476D02*
X89208628Y-210100714D01*
X89208628Y-210100714D02*
X89208628Y-210481666D01*
X88684819Y-209624523D02*
X89684819Y-209291190D01*
X89684819Y-209291190D02*
X88684819Y-208957857D01*
X88684819Y-208719761D02*
X88684819Y-208100714D01*
X88684819Y-208100714D02*
X89065771Y-208434047D01*
X89065771Y-208434047D02*
X89065771Y-208291190D01*
X89065771Y-208291190D02*
X89113390Y-208195952D01*
X89113390Y-208195952D02*
X89161009Y-208148333D01*
X89161009Y-208148333D02*
X89256247Y-208100714D01*
X89256247Y-208100714D02*
X89494342Y-208100714D01*
X89494342Y-208100714D02*
X89589580Y-208148333D01*
X89589580Y-208148333D02*
X89637200Y-208195952D01*
X89637200Y-208195952D02*
X89684819Y-208291190D01*
X89684819Y-208291190D02*
X89684819Y-208576904D01*
X89684819Y-208576904D02*
X89637200Y-208672142D01*
X89637200Y-208672142D02*
X89589580Y-208719761D01*
%TO.C,RV7*%
X228844819Y-209905238D02*
X228368628Y-210238571D01*
X228844819Y-210476666D02*
X227844819Y-210476666D01*
X227844819Y-210476666D02*
X227844819Y-210095714D01*
X227844819Y-210095714D02*
X227892438Y-210000476D01*
X227892438Y-210000476D02*
X227940057Y-209952857D01*
X227940057Y-209952857D02*
X228035295Y-209905238D01*
X228035295Y-209905238D02*
X228178152Y-209905238D01*
X228178152Y-209905238D02*
X228273390Y-209952857D01*
X228273390Y-209952857D02*
X228321009Y-210000476D01*
X228321009Y-210000476D02*
X228368628Y-210095714D01*
X228368628Y-210095714D02*
X228368628Y-210476666D01*
X227844819Y-209619523D02*
X228844819Y-209286190D01*
X228844819Y-209286190D02*
X227844819Y-208952857D01*
X227844819Y-208714761D02*
X227844819Y-208048095D01*
X227844819Y-208048095D02*
X228844819Y-208476666D01*
D12*
%TO.C,SW1*%
X267050000Y-214550000D02*
X267050000Y-201850000D01*
X267050000Y-201850000D02*
X273950000Y-201850000D01*
X273950000Y-201850000D02*
X273950000Y-214550000D01*
X273950000Y-214550000D02*
X267050000Y-214550000D01*
D13*
X265933000Y-212957000D02*
G75*
G03*
X265933000Y-212957000I-228000J0D01*
G01*
D14*
%TO.C,RV2*%
X136150000Y-203255000D02*
X126410000Y-203255000D01*
X136150000Y-206315000D02*
X136150000Y-203255000D01*
X126410000Y-206315000D02*
X126410000Y-203255000D01*
X136150000Y-214845000D02*
X136150000Y-210125000D01*
X136150000Y-214845000D02*
X134660000Y-214845000D01*
X132940000Y-214845000D02*
X132110000Y-214845000D01*
X130490000Y-214845000D02*
X129960000Y-214845000D01*
X127590000Y-214845000D02*
X126410000Y-214845000D01*
X126400000Y-214845000D02*
X126400000Y-210125000D01*
%TO.C,RV4*%
X276370000Y-158530000D02*
X266630000Y-158530000D01*
X276370000Y-161590000D02*
X276370000Y-158530000D01*
X266630000Y-161590000D02*
X266630000Y-158530000D01*
X276370000Y-170120000D02*
X276370000Y-165400000D01*
X276370000Y-170120000D02*
X274880000Y-170120000D01*
X273160000Y-170120000D02*
X272330000Y-170120000D01*
X270710000Y-170120000D02*
X270180000Y-170120000D01*
X267810000Y-170120000D02*
X266630000Y-170120000D01*
X266620000Y-170120000D02*
X266620000Y-165400000D01*
%TO.C,RV6*%
X66590000Y-203265000D02*
X56850000Y-203265000D01*
X66590000Y-206325000D02*
X66590000Y-203265000D01*
X56850000Y-206325000D02*
X56850000Y-203265000D01*
X66590000Y-214855000D02*
X66590000Y-210135000D01*
X66590000Y-214855000D02*
X65100000Y-214855000D01*
X63380000Y-214855000D02*
X62550000Y-214855000D01*
X60930000Y-214855000D02*
X60400000Y-214855000D01*
X58030000Y-214855000D02*
X56850000Y-214855000D01*
X56840000Y-214855000D02*
X56840000Y-210135000D01*
%TO.C,RV5*%
X205760000Y-203315000D02*
X196020000Y-203315000D01*
X205760000Y-206375000D02*
X205760000Y-203315000D01*
X196020000Y-206375000D02*
X196020000Y-203315000D01*
X205760000Y-214905000D02*
X205760000Y-210185000D01*
X205760000Y-214905000D02*
X204270000Y-214905000D01*
X202550000Y-214905000D02*
X201720000Y-214905000D01*
X200100000Y-214905000D02*
X199570000Y-214905000D01*
X197200000Y-214905000D02*
X196020000Y-214905000D01*
X196010000Y-214905000D02*
X196010000Y-210185000D01*
%TO.C,RV1*%
X170940000Y-203295000D02*
X161200000Y-203295000D01*
X170940000Y-206355000D02*
X170940000Y-203295000D01*
X161200000Y-206355000D02*
X161200000Y-203295000D01*
X170940000Y-214885000D02*
X170940000Y-210165000D01*
X170940000Y-214885000D02*
X169450000Y-214885000D01*
X167730000Y-214885000D02*
X166900000Y-214885000D01*
X165280000Y-214885000D02*
X164750000Y-214885000D01*
X162380000Y-214885000D02*
X161200000Y-214885000D01*
X161190000Y-214885000D02*
X161190000Y-210165000D01*
%TO.C,RV3*%
X101400000Y-203295000D02*
X91660000Y-203295000D01*
X101400000Y-206355000D02*
X101400000Y-203295000D01*
X91660000Y-206355000D02*
X91660000Y-203295000D01*
X101400000Y-214885000D02*
X101400000Y-210165000D01*
X101400000Y-214885000D02*
X99910000Y-214885000D01*
X98190000Y-214885000D02*
X97360000Y-214885000D01*
X95740000Y-214885000D02*
X95210000Y-214885000D01*
X92840000Y-214885000D02*
X91660000Y-214885000D01*
X91650000Y-214885000D02*
X91650000Y-210165000D01*
%TO.C,RV7*%
X230810000Y-214880000D02*
X230810000Y-210160000D01*
X232000000Y-214880000D02*
X230820000Y-214880000D01*
X234900000Y-214880000D02*
X234370000Y-214880000D01*
X237350000Y-214880000D02*
X236520000Y-214880000D01*
X240560000Y-214880000D02*
X239070000Y-214880000D01*
X240560000Y-214880000D02*
X240560000Y-210160000D01*
X230820000Y-206350000D02*
X230820000Y-203290000D01*
X240560000Y-206350000D02*
X240560000Y-203290000D01*
X240560000Y-203290000D02*
X230820000Y-203290000D01*
%TD*%
M02*
