M48
; DRILL file {KiCad 7.0.5-0} date 2023 August 11, Friday 11:29:34
; FORMAT={-:-/ absolute / inch / decimal}
; #@! TF.CreationDate,2023-08-11T11:29:34-04:00
; #@! TF.GenerationSoftware,Kicad,Pcbnew,7.0.5-0
; #@! TF.FileFunction,Plated,1,2,PTH
FMAT,2
INCH
; #@! TA.AperFunction,Plated,PTH,ViaDrill
T1C0.0157
; #@! TA.AperFunction,Plated,PTH,ComponentDrill
T2C0.0394
; #@! TA.AperFunction,Plated,PTH,ComponentDrill
T3C0.0709
; #@! TA.AperFunction,Plated,PTH,ComponentDrill
T4C0.0730
%
G90
G05
T1
X3.6614Y-7.9528
X3.7402Y-7.9528
X5.0Y-7.9528
X5.0Y-8.3465
X5.1181Y-8.3465
X5.1575Y-7.9528
X6.378Y-7.9528
X6.378Y-8.3071
X6.378Y-8.3465
X6.4961Y-7.9528
X6.4961Y-8.3071
X6.4961Y-8.3465
X7.7559Y-7.9528
X7.7559Y-8.3071
X7.7559Y-8.3465
X7.7559Y-8.3858
X7.874Y-8.3071
X7.874Y-8.3465
X7.874Y-8.3858
X7.9134Y-7.9528
X9.1339Y-7.9528
X9.1339Y-8.0709
X9.1339Y-8.3071
X9.1339Y-8.3465
X9.1339Y-8.3858
X9.2126Y-8.0709
X9.2126Y-8.3071
X9.2126Y-8.3465
X9.2126Y-8.3858
X9.252Y-7.9528
X10.2756Y-8.4252
X10.3898Y-7.9094
X10.3937Y-7.9528
X10.4843Y-7.9764
X10.5197Y-8.5827
X10.685Y-7.1575
X10.689Y-6.9803
T2
X2.3315Y-8.4935
X2.4299Y-8.4935
X2.5283Y-8.4935
X3.702Y-8.4947
X3.8004Y-8.4947
X3.8988Y-8.4947
X5.0701Y-8.4931
X5.1685Y-8.4931
X5.2669Y-8.4931
X6.4398Y-8.4947
X6.5382Y-8.4947
X6.6366Y-8.4947
X7.8106Y-8.4955
X7.9091Y-8.4955
X8.0075Y-8.4955
X9.1807Y-8.4945
X9.2791Y-8.4945
X9.3776Y-8.4945
X10.2819Y-7.711
X10.2819Y-7.811
X10.2819Y-7.911
X10.2819Y-8.011
X10.2819Y-8.111
X10.2819Y-8.211
X10.2819Y-8.311
X10.5906Y-6.7323
X10.689Y-6.7323
X10.7874Y-6.7323
X10.8819Y-7.7102
X10.8819Y-7.8102
X10.8819Y-7.9102
X10.8819Y-8.0102
X10.8819Y-8.1102
X10.8819Y-8.2102
X10.8819Y-8.3102
T3
X2.2409Y-8.1982
X2.6189Y-8.1982
X3.6114Y-8.1994
X3.9894Y-8.1994
X4.9795Y-8.1978
X5.3575Y-8.1978
X6.3492Y-8.1994
X6.7272Y-8.1994
X7.7201Y-8.2002
X8.098Y-8.2002
X9.0902Y-8.1992
X9.4681Y-8.1992
X10.5Y-6.437
X10.878Y-6.437
T4
X10.6496Y-8.0118
X10.6496Y-8.1969
X10.6496Y-8.3819
T0
M30
