%TF.GenerationSoftware,KiCad,Pcbnew,7.0.5-0*%
%TF.CreationDate,2023-08-11T11:25:24-04:00*%
%TF.ProjectId,AmpSim,416d7053-696d-42e6-9b69-6361645f7063,rev?*%
%TF.SameCoordinates,Original*%
%TF.FileFunction,Legend,Bot*%
%TF.FilePolarity,Positive*%
%FSLAX46Y46*%
G04 Gerber Fmt 4.6, Leading zero omitted, Abs format (unit mm)*
G04 Created by KiCad (PCBNEW 7.0.5-0) date 2023-08-11 11:25:24*
%MOMM*%
%LPD*%
G01*
G04 APERTURE LIST*
%ADD10C,0.150000*%
%ADD11C,0.120000*%
G04 APERTURE END LIST*
D10*
%TO.C,J2*%
X261493333Y-192544819D02*
X261493333Y-193259104D01*
X261493333Y-193259104D02*
X261540952Y-193401961D01*
X261540952Y-193401961D02*
X261636190Y-193497200D01*
X261636190Y-193497200D02*
X261779047Y-193544819D01*
X261779047Y-193544819D02*
X261874285Y-193544819D01*
X261064761Y-192640057D02*
X261017142Y-192592438D01*
X261017142Y-192592438D02*
X260921904Y-192544819D01*
X260921904Y-192544819D02*
X260683809Y-192544819D01*
X260683809Y-192544819D02*
X260588571Y-192592438D01*
X260588571Y-192592438D02*
X260540952Y-192640057D01*
X260540952Y-192640057D02*
X260493333Y-192735295D01*
X260493333Y-192735295D02*
X260493333Y-192830533D01*
X260493333Y-192830533D02*
X260540952Y-192973390D01*
X260540952Y-192973390D02*
X261112380Y-193544819D01*
X261112380Y-193544819D02*
X260493333Y-193544819D01*
%TO.C,J1*%
X276733333Y-192524819D02*
X276733333Y-193239104D01*
X276733333Y-193239104D02*
X276780952Y-193381961D01*
X276780952Y-193381961D02*
X276876190Y-193477200D01*
X276876190Y-193477200D02*
X277019047Y-193524819D01*
X277019047Y-193524819D02*
X277114285Y-193524819D01*
X275733333Y-193524819D02*
X276304761Y-193524819D01*
X276019047Y-193524819D02*
X276019047Y-192524819D01*
X276019047Y-192524819D02*
X276114285Y-192667676D01*
X276114285Y-192667676D02*
X276209523Y-192762914D01*
X276209523Y-192762914D02*
X276304761Y-192810533D01*
D11*
%TO.C,J2*%
X262490000Y-212430000D02*
X259830000Y-212430000D01*
X262490000Y-197130000D02*
X262490000Y-212430000D01*
X262490000Y-197130000D02*
X259830000Y-197130000D01*
X261160000Y-194530000D02*
X259830000Y-194530000D01*
X259830000Y-197130000D02*
X259830000Y-212430000D01*
X259830000Y-194530000D02*
X259830000Y-195860000D01*
%TO.C,J1*%
X277730000Y-212410000D02*
X275070000Y-212410000D01*
X277730000Y-197110000D02*
X277730000Y-212410000D01*
X277730000Y-197110000D02*
X275070000Y-197110000D01*
X276400000Y-194510000D02*
X275070000Y-194510000D01*
X275070000Y-197110000D02*
X275070000Y-212410000D01*
X275070000Y-194510000D02*
X275070000Y-195840000D01*
%TD*%
M02*
