%TF.GenerationSoftware,KiCad,Pcbnew,7.0.5-0*%
%TF.CreationDate,2023-08-11T11:25:24-04:00*%
%TF.ProjectId,AmpSim,416d7053-696d-42e6-9b69-6361645f7063,rev?*%
%TF.SameCoordinates,Original*%
%TF.FileFunction,Copper,L2,Bot*%
%TF.FilePolarity,Positive*%
%FSLAX46Y46*%
G04 Gerber Fmt 4.6, Leading zero omitted, Abs format (unit mm)*
G04 Created by KiCad (PCBNEW 7.0.5-0) date 2023-08-11 11:25:24*
%MOMM*%
%LPD*%
G01*
G04 APERTURE LIST*
%TA.AperFunction,ComponentPad*%
%ADD10C,2.800000*%
%TD*%
%TA.AperFunction,ComponentPad*%
%ADD11C,1.800000*%
%TD*%
%TA.AperFunction,ComponentPad*%
%ADD12R,1.800000X1.800000*%
%TD*%
%TA.AperFunction,ComponentPad*%
%ADD13C,3.240000*%
%TD*%
%TA.AperFunction,ComponentPad*%
%ADD14R,1.700000X1.700000*%
%TD*%
%TA.AperFunction,ComponentPad*%
%ADD15O,1.700000X1.700000*%
%TD*%
%TA.AperFunction,ViaPad*%
%ADD16C,0.800000*%
%TD*%
%TA.AperFunction,Conductor*%
%ADD17C,0.250000*%
%TD*%
G04 APERTURE END LIST*
D10*
%TO.P,SW1,1,A*%
%TO.N,+3.3V*%
X270500000Y-212900000D03*
%TO.P,SW1,2,B*%
%TO.N,/P2*%
X270500000Y-208200000D03*
%TO.P,SW1,3,C*%
%TO.N,GND*%
X270500000Y-203500000D03*
%TD*%
D11*
%TO.P,RV2,3,3*%
%TO.N,GND*%
X133780000Y-215725000D03*
%TO.P,RV2,2,2*%
%TO.N,/P9*%
X131280000Y-215725000D03*
D12*
%TO.P,RV2,1,1*%
%TO.N,+3.3V*%
X128780000Y-215725000D03*
D13*
%TO.P,RV2,*%
%TO.N,*%
X136080000Y-208225000D03*
X126480000Y-208225000D03*
%TD*%
D11*
%TO.P,RV4,3,3*%
%TO.N,GND*%
X274000000Y-171000000D03*
%TO.P,RV4,2,2*%
%TO.N,/P1*%
X271500000Y-171000000D03*
D12*
%TO.P,RV4,1,1*%
%TO.N,+3.3V*%
X269000000Y-171000000D03*
D13*
%TO.P,RV4,*%
%TO.N,*%
X276300000Y-163500000D03*
X266700000Y-163500000D03*
%TD*%
D11*
%TO.P,RV6,3,3*%
%TO.N,GND*%
X64220000Y-215735000D03*
%TO.P,RV6,2,2*%
%TO.N,/P5*%
X61720000Y-215735000D03*
D12*
%TO.P,RV6,1,1*%
%TO.N,+3.3V*%
X59220000Y-215735000D03*
D13*
%TO.P,RV6,*%
%TO.N,*%
X66520000Y-208235000D03*
X56920000Y-208235000D03*
%TD*%
D11*
%TO.P,RV5,3,3*%
%TO.N,GND*%
X203390000Y-215785000D03*
%TO.P,RV5,2,2*%
%TO.N,/P7*%
X200890000Y-215785000D03*
D12*
%TO.P,RV5,1,1*%
%TO.N,+3.3V*%
X198390000Y-215785000D03*
D13*
%TO.P,RV5,*%
%TO.N,*%
X205690000Y-208285000D03*
X196090000Y-208285000D03*
%TD*%
D11*
%TO.P,RV1,3,3*%
%TO.N,GND*%
X168570000Y-215765000D03*
%TO.P,RV1,2,2*%
%TO.N,/P8*%
X166070000Y-215765000D03*
D12*
%TO.P,RV1,1,1*%
%TO.N,+3.3V*%
X163570000Y-215765000D03*
D13*
%TO.P,RV1,*%
%TO.N,*%
X170870000Y-208265000D03*
X161270000Y-208265000D03*
%TD*%
D11*
%TO.P,RV3,3,3*%
%TO.N,GND*%
X99030000Y-215765000D03*
%TO.P,RV3,2,2*%
%TO.N,/P10*%
X96530000Y-215765000D03*
D12*
%TO.P,RV3,1,1*%
%TO.N,+3.3V*%
X94030000Y-215765000D03*
D13*
%TO.P,RV3,*%
%TO.N,*%
X101330000Y-208265000D03*
X91730000Y-208265000D03*
%TD*%
%TO.P,RV7,*%
%TO.N,*%
X230890000Y-208260000D03*
X240490000Y-208260000D03*
D12*
%TO.P,RV7,1,1*%
%TO.N,+3.3V*%
X233190000Y-215760000D03*
D11*
%TO.P,RV7,2,2*%
%TO.N,/P6*%
X235690000Y-215760000D03*
%TO.P,RV7,3,3*%
%TO.N,GND*%
X238190000Y-215760000D03*
%TD*%
D14*
%TO.P,J2,1,Pin_1*%
%TO.N,/+5V*%
X261160000Y-195860000D03*
D15*
%TO.P,J2,2,Pin_2*%
%TO.N,GND*%
X261160000Y-198400000D03*
%TO.P,J2,3,Pin_3*%
%TO.N,+3.3V*%
X261160000Y-200940000D03*
%TO.P,J2,4,Pin_4*%
%TO.N,/P10*%
X261160000Y-203480000D03*
%TO.P,J2,5,Pin_5*%
%TO.N,/P9*%
X261160000Y-206020000D03*
%TO.P,J2,6,Pin_6*%
%TO.N,/P8*%
X261160000Y-208560000D03*
%TO.P,J2,7,Pin_7*%
%TO.N,/P7*%
X261160000Y-211100000D03*
%TD*%
D14*
%TO.P,J1,1,Pin_1*%
%TO.N,/P0*%
X276400000Y-195840000D03*
D15*
%TO.P,J1,2,Pin_2*%
%TO.N,/P1*%
X276400000Y-198380000D03*
%TO.P,J1,3,Pin_3*%
%TO.N,/P2*%
X276400000Y-200920000D03*
%TO.P,J1,4,Pin_4*%
%TO.N,/P3*%
X276400000Y-203460000D03*
%TO.P,J1,5,Pin_5*%
%TO.N,/P4*%
X276400000Y-206000000D03*
%TO.P,J1,6,Pin_6*%
%TO.N,/P5*%
X276400000Y-208540000D03*
%TO.P,J1,7,Pin_7*%
%TO.N,/P6*%
X276400000Y-211080000D03*
%TD*%
D16*
%TO.N,+3.3V*%
X266300000Y-202600000D03*
X263900000Y-200900000D03*
%TO.N,/P6*%
X267200000Y-218000000D03*
%TO.N,/P1*%
X271400000Y-181800000D03*
X271500000Y-177300000D03*
%TO.N,/P5*%
X131000000Y-202000000D03*
X264000000Y-202000000D03*
X162000000Y-202000000D03*
X201000000Y-202000000D03*
X165000000Y-202000000D03*
X232000000Y-202000000D03*
X95000000Y-202000000D03*
X197000000Y-202000000D03*
X127000000Y-202000000D03*
X93000000Y-202000000D03*
X235000000Y-202000000D03*
%TO.N,/P6*%
X261000000Y-214000000D03*
%TO.N,/P10*%
X232000000Y-205000000D03*
X197000000Y-211000000D03*
X127000000Y-212000000D03*
X165000000Y-211000000D03*
X130000000Y-212000000D03*
X162000000Y-211000000D03*
X200000000Y-211000000D03*
X234000000Y-205000000D03*
%TO.N,/P9*%
X165000000Y-212000000D03*
X200000000Y-212000000D03*
X197000000Y-212000000D03*
X234000000Y-211000000D03*
X232000000Y-211000000D03*
X162000000Y-212000000D03*
%TO.N,/P8*%
X200000000Y-213000000D03*
X234000000Y-212000000D03*
X232000000Y-212000000D03*
X197000000Y-213000000D03*
%TO.N,/P7*%
X234000000Y-213000000D03*
X232000000Y-213000000D03*
%TD*%
D17*
%TO.N,+3.3V*%
X263900000Y-200900000D02*
X264600000Y-200900000D01*
X264600000Y-200900000D02*
X266300000Y-202600000D01*
%TO.N,/P6*%
X263200000Y-214000000D02*
X267200000Y-218000000D01*
X261000000Y-214000000D02*
X263200000Y-214000000D01*
%TO.N,/P5*%
X264000000Y-202000000D02*
X268400000Y-206400000D01*
X268400000Y-206400000D02*
X274260000Y-206400000D01*
X274260000Y-206400000D02*
X276400000Y-208540000D01*
%TO.N,/P1*%
X271500000Y-181700000D02*
X271400000Y-181800000D01*
X271500000Y-177300000D02*
X271500000Y-181700000D01*
%TO.N,/P5*%
X93000000Y-202000000D02*
X95000000Y-202000000D01*
X232000000Y-202000000D02*
X235000000Y-202000000D01*
X197000000Y-202000000D02*
X201000000Y-202000000D01*
X127000000Y-202000000D02*
X131000000Y-202000000D01*
X162000000Y-202000000D02*
X165000000Y-202000000D01*
%TO.N,/P10*%
X197000000Y-211000000D02*
X200000000Y-211000000D01*
X127000000Y-212000000D02*
X130000000Y-212000000D01*
X232000000Y-205000000D02*
X234000000Y-205000000D01*
X162000000Y-211000000D02*
X165000000Y-211000000D01*
%TO.N,/P9*%
X162000000Y-212000000D02*
X165000000Y-212000000D01*
X232000000Y-211000000D02*
X234000000Y-211000000D01*
X197000000Y-212000000D02*
X200000000Y-212000000D01*
%TO.N,/P8*%
X197000000Y-213000000D02*
X200000000Y-213000000D01*
X232000000Y-212000000D02*
X234000000Y-212000000D01*
%TO.N,/P7*%
X232000000Y-213000000D02*
X234000000Y-213000000D01*
%TD*%
M02*
