0
SECTION
2
HEADER
9
$INSUNITS
70
4
9
$ACADVER
1
AC1014
9
$HANDSEED
5
FFFF
0
ENDSEC
0
SECTION
2
TABLES
0
TABLE
2
VPORT
5
8
100
AcDbSymbolTable
0
ENDTAB
0
TABLE
2
LTYPE
5
5
100
AcDbSymbolTable
0
LTYPE
5
14
100
AcDbSymbolTableRecord
100
AcDbLinetypeTableRecord
2
BYBLOCK
70
0
0
LTYPE
5
15
100
AcDbSymbolTableRecord
100
AcDbLinetypeTableRecord
2
BYLAYER
70
0
0
ENDTAB
0
TABLE
2
LAYER
5
2
100
AcDbSymbolTable
70
2
0
LAYER
5
50
100
AcDbSymbolTableRecord
100
AcDbLayerTableRecord
2
0
70
0
6
CONTINUOUS
0
ENDTAB
0
TABLE
2
STYLE
5
3
100
AcDbSymbolTable
70
1
0
STYLE
5
11
100
AcDbSymbolTableRecord
100
AcDbTextStyleTableRecord
2
STANDARD
70
0
0
ENDTAB
0
TABLE
2
VIEW
5
6
100
AcDbSymbolTable
70
0
0
ENDTAB
0
TABLE
2
UCS
5
7
100
AcDbSymbolTable
70
0
0
ENDTAB
0
TABLE
2
APPID
5
9
100
AcDbSymbolTable
70
2
0
APPID
5
12
100
AcDbSymbolTableRecord
100
AcDbRegAppTableRecord
2
ACAD
70
0
0
ENDTAB
0
TABLE
2
DIMSTYLE
5
A
100
AcDbSymbolTable
70
1
0
ENDTAB
0
TABLE
2
BLOCK_RECORD
5
1
100
AcDbSymbolTable
70
1
0
BLOCK_RECORD
5
1F
100
AcDbSymbolTableRecord
100
AcDbBlockTableRecord
2
*MODEL_SPACE
0
BLOCK_RECORD
5
1B
100
AcDbSymbolTableRecord
100
AcDbBlockTableRecord
2
*PAPER_SPACE
0
ENDTAB
0
ENDSEC
0
SECTION
2
BLOCKS
0
BLOCK
5
20
100
AcDbEntity
100
AcDbBlockBegin
2
*MODEL_SPACE
0
ENDBLK
5
21
100
AcDbEntity
100
AcDbBlockEnd
0
BLOCK
5
1C
100
AcDbEntity
100
AcDbBlockBegin
2
*PAPER_SPACE
0
ENDBLK
5
1D
100
AcDbEntity
100
AcDbBlockEnd
0
ENDSEC
0
SECTION
2
ENTITIES
0
LWPOLYLINE
5
100
100
AcDbEntity
8
OUTER_PROFILES
100
AcDbPolyline
90
68
70
1
43
0.0
10
-30.711459452223014
20
37.5
42
0.99999999999999989
10
-30.711459565700959
20
16.375000000000064
10
-8.8500000000000512
20
16.375000000000064
10
-8.8500000000000512
20
13.175000000000061
10
-16.825000000000081
20
13.175000000000061
10
-16.82500000000001
20
-22.63645956570052
42
0.99999999999999989
10
-3.2000000000000384
20
-22.63645956570052
10
-3.2000000000000028
20
7.9750000000000654
10
0
20
7.9750000000000654
10
0
20
0
10
79.198959565700989
20
0
10
79.198959565700989
20
7.9749999999999943
10
82.398959565700977
20
7.9749999999999943
10
82.398959565700977
20
-16.948959565701465
42
0.99999997528921991
10
97.398959565700977
20
-16.948959930691316
10
97.398959565700977
20
7.9749999999999943
10
100.59895956570099
20
7.9749999999999943
10
100.59895956570099
20
0
10
275.7989595657009
20
0
10
275.7989595657009
20
7.9749999999999943
10
278.99895956570094
20
7.9749999999999943
10
278.99895956570094
20
-16.972459486212266
42
0.99999999999999989
10
293.95195956570086
20
-16.972459565701467
10
293.95195956570086
20
7.9749999999999925
10
297.15195956570085
20
7.9749999999999943
10
297.15195956570085
20
0
10
313.95195956570092
20
0
10
313.95195956570092
20
164.30000000000001
10
305.97695956570089
20
164.30000000000001
10
305.97695956570089
20
167.5
10
323.40091913140191
20
167.5
42
1.0000000182501207
10
323.40091893606194
20
177.5
10
305.97695956570089
20
177.5
10
305.97695956570089
20
180.69999999999999
10
313.95195956570092
20
180.69999999999999
10
313.95195956570092
20
255
10
297.15195956570085
20
255
10
297.15195956570085
20
247.02499999999998
10
293.95195956570086
20
247.02499999999998
10
293.95195956570086
20
271.97245964519067
42
0.99999999999999989
10
278.99895956570094
20
271.97245948621224
10
278.99895956570094
20
247.02499999999998
10
275.7989595657009
20
247.02499999999998
10
275.7989595657009
20
255
10
100.59895956570099
20
255
10
100.59895956570099
20
247.02499999999998
10
97.398959565700977
20
247.02499999999998
10
97.398959565700977
20
271.94895993636311
42
0.99999997528921991
10
82.398959565700977
20
271.94895956570144
10
82.398959565700977
20
247.02499999999998
10
79.198959565700989
20
247.02499999999998
10
79.198959565700989
20
255
10
0
20
255
10
0
20
247.02499999999992
10
-3.2000000000000028
20
247.02499999999992
10
-3.2000000000000384
20
277.63645956570053
42
0.99999999999999989
10
-16.82500000000001
20
277.63645956570053
10
-16.825000000000081
20
241.8249999999999
10
-8.8500000000000512
20
241.8249999999999
10
-8.8500000000000512
20
238.62499999999989
10
-30.711459679178898
20
238.62499999999989
42
0.99999999999999989
10
-30.711459452223014
20
217.5
10
-8.8500000000000512
20
217.5
10
-8.8500000000000512
20
214.30000000000001
10
-16.825000000000081
20
214.30000000000001
10
-16.825000000000081
20
40.700000000000003
10
-8.8500000000000512
20
40.700000000000003
10
-8.8500000000000512
20
37.5
0
LWPOLYLINE
5
101
100
AcDbEntity
8
INTERIOR_PROFILES
100
AcDbPolyline
90
8
70
1
43
0.0
10
37.12496256687237
20
8.3934481578064908
42
-0.41421356237309515
10
32.024962566872368
20
3.2934481578064934
10
12.024962566872368
20
3.29344815780658
42
-0.41421356237309914
10
6.924962566872388
20
8.3934481578066311
10
6.924962566872459
20
20.393448157806588
42
-0.41421356237309703
10
12.024962566872475
20
25.493448157806597
10
32.024962566872439
20
25.493448157806498
42
-0.41421356237309093
10
37.124962566872419
20
20.393448157806517
0
CIRCLE
5
102
100
AcDbEntity
8
INTERIOR_PROFILES
100
AcDbCircle
10
-253.00563328443025
20
176.34570741273654
30
0
40
1.5899999999999892
210
0
220
0
230
-1
0
CIRCLE
5
103
100
AcDbEntity
8
INTERIOR_PROFILES
100
AcDbCircle
10
10.012500000000024
20
-22.63645956570052
30
0
40
1.3000000000000078
210
0
220
0
230
-1
0
CIRCLE
5
104
100
AcDbEntity
8
INTERIOR_PROFILES
100
AcDbCircle
10
-263.22698891488756
20
199.12674637155675
30
0
40
1.5899999999999892
210
0
220
0
230
-1
0
CIRCLE
5
105
100
AcDbEntity
8
INTERIOR_PROFILES
100
AcDbCircle
10
-30.711459565700956
20
228.06249999999994
30
0
40
1.2999999999999901
210
-0
220
0
230
1
0
CIRCLE
5
106
100
AcDbEntity
8
INTERIOR_PROFILES
100
AcDbCircle
10
-263.22698891488767
20
234.12674637155689
30
0
40
1.5899999999999892
210
0
220
0
230
-1
0
CIRCLE
5
107
100
AcDbEntity
8
INTERIOR_PROFILES
100
AcDbCircle
10
-9.4433735828436838
20
243.83715970378154
30
0
40
1.5899999999999892
210
0
220
0
230
-1
0
CIRCLE
5
108
100
AcDbEntity
8
INTERIOR_PROFILES
100
AcDbCircle
10
-172.55098272835252
20
30.296520200233434
30
0
40
1.590000000000007
210
0
220
0
230
-1
0
CIRCLE
5
109
100
AcDbEntity
8
INTERIOR_PROFILES
100
AcDbCircle
10
-323.40091913140191
20
172.5
30
0
40
1.2999999999999901
210
0
220
0
230
-1
0
CIRCLE
5
110
100
AcDbEntity
8
INTERIOR_PROFILES
100
AcDbCircle
10
-273.04045092964054
20
201.88583600020854
30
0
40
1.5899999999999892
210
0
220
0
230
-1
0
CIRCLE
5
111
100
AcDbEntity
8
INTERIOR_PROFILES
100
AcDbCircle
10
-279.32945092964053
20
184.88583600020863
30
0
40
1.5899999999999892
210
0
220
0
230
-1
0
CIRCLE
5
112
100
AcDbEntity
8
INTERIOR_PROFILES
100
AcDbCircle
10
-253.00563328442996
20
18.865707412736583
30
0
40
1.590000000000007
210
0
220
0
230
-1
0
CIRCLE
5
113
100
AcDbEntity
8
INTERIOR_PROFILES
100
AcDbCircle
10
-2.0249625668724391
20
14.393448157806645
30
0
40
1.5899999999999892
210
0
220
0
230
-1
0
CIRCLE
5
114
100
AcDbEntity
8
INTERIOR_PROFILES
100
AcDbCircle
10
-42.024962566872404
20
14.393448157806468
30
0
40
1.5899999999999892
210
0
220
0
230
-1
0
CIRCLE
5
115
100
AcDbEntity
8
INTERIOR_PROFILES
100
AcDbCircle
10
-86.226988914879826
20
234.12674637155726
30
0
40
1.5899999999999892
210
0
220
0
230
-1
0
CIRCLE
5
116
100
AcDbEntity
8
INTERIOR_PROFILES
100
AcDbCircle
10
-286.47545956570082
20
-16.972459565701463
30
0
40
1.2999999999999989
210
0
220
0
230
-1
0
CIRCLE
5
117
100
AcDbEntity
8
INTERIOR_PROFILES
100
AcDbCircle
10
30.711459565700956
20
26.937500000000032
30
0
40
1.2999999999999989
210
0
220
0
230
-1
0
CIRCLE
5
118
100
AcDbEntity
8
INTERIOR_PROFILES
100
AcDbCircle
10
-273.04045092964054
20
167.88583600020857
30
0
40
1.5899999999999892
210
0
220
0
230
-1
0
CIRCLE
5
119
100
AcDbEntity
8
INTERIOR_PROFILES
100
AcDbCircle
10
-178.86041356083038
20
76.156046810063998
30
0
40
1.5899999999999981
210
0
220
0
230
-1
0
CIRCLE
5
120
100
AcDbEntity
8
INTERIOR_PROFILES
100
AcDbCircle
10
286.47545956570082
20
271.97245956570146
30
0
40
1.2999999999999901
210
-0
220
0
230
1
0
CIRCLE
5
121
100
AcDbEntity
8
INTERIOR_PROFILES
100
AcDbCircle
10
89.898959565700977
20
271.94895956570144
30
0
40
1.2999999999999901
210
-0
220
0
230
1
0
CIRCLE
5
122
100
AcDbEntity
8
INTERIOR_PROFILES
100
AcDbCircle
10
-33.44337358284367
20
224.83715970378165
30
0
40
1.5899999999999892
210
0
220
0
230
-1
0
CIRCLE
5
123
100
AcDbEntity
8
INTERIOR_PROFILES
100
AcDbCircle
10
-86.22698891487974
20
199.12674637155715
30
0
40
1.5900000000000247
210
0
220
0
230
-1
0
CIRCLE
5
124
100
AcDbEntity
8
INTERIOR_PROFILES
100
AcDbCircle
10
-33.443965733415872
20
188.27665742945072
30
0
40
1.5899999999999892
210
0
220
0
230
-1
0
CIRCLE
5
125
100
AcDbEntity
8
INTERIOR_PROFILES
100
AcDbCircle
10
-10.012500000000024
20
277.63645956570053
30
0
40
1.3000000000000256
210
-0
220
0
230
1
0
CIRCLE
5
126
100
AcDbEntity
8
INTERIOR_PROFILES
100
AcDbCircle
10
-21.443373582843677
20
234.33715970378165
30
0
40
11.875
210
0
220
0
230
-1
0
CIRCLE
5
127
100
AcDbEntity
8
INTERIOR_PROFILES
100
AcDbCircle
10
-172.55098272835252
20
118.56737036294881
30
0
40
1.590000000000007
210
0
220
0
230
-1
0
CIRCLE
5
128
100
AcDbEntity
8
INTERIOR_PROFILES
100
AcDbCircle
10
-98.065633284430021
20
18.865707412736903
30
0
40
1.590000000000007
210
0
220
0
230
-1
0
CIRCLE
5
129
100
AcDbEntity
8
INTERIOR_PROFILES
100
AcDbCircle
10
-21.443965733415844
20
197.77665742945075
30
0
40
11.875
210
0
220
0
230
-1
0
CIRCLE
5
130
100
AcDbEntity
8
INTERIOR_PROFILES
100
AcDbCircle
10
-120.92563328443032
20
176.34570741273683
30
0
40
1.5899999999999892
210
0
220
0
230
-1
0
CIRCLE
5
131
100
AcDbEntity
8
INTERIOR_PROFILES
100
AcDbCircle
10
-9.4439657334158866
20
207.27665742945064
30
0
40
1.5899999999999892
210
0
220
0
230
-1
0
CIRCLE
5
132
100
AcDbEntity
8
INTERIOR_PROFILES
100
AcDbCircle
10
-89.898959565700977
20
-16.948959565701465
30
0
40
1.2999999999999901
210
0
220
0
230
-1
0
LINE
5
133
100
AcDbEntity
8
BEND
100
AcDbLine
10
311.1764393485513
20
177.49999999999997
30
7.5287401700516418e-13
11
311.1764393485513
21
167.49999999999997
31
7.5287401700516418e-13
0
LINE
5
134
100
AcDbEntity
8
BEND
100
AcDbLine
10
293.95195956570086
20
2.775520217149321
30
6.9251169393552273e-13
11
278.998959565701
21
2.775520217149321
31
6.4913153808467256e-13
0
LINE
5
135
100
AcDbEntity
8
BEND
100
AcDbLine
10
97.39895956570092
20
2.775520217149321
30
1.2229168638170499e-13
11
82.39895956570092
21
2.775520217149321
31
7.8775178807120691e-14
0
LINE
5
136
100
AcDbEntity
8
BEND
100
AcDbLine
10
65.399479782850449
20
7.1054273576010019e-14
30
3.9850355498556225e-14
11
65.399479782850449
21
254.99999999999994
31
3.9850355498556225e-14
0
LINE
5
137
100
AcDbEntity
8
BEND
100
AcDbLine
10
82.39895956570092
20
252.22447978285066
30
7.8775178807120691e-14
11
97.39895956570092
21
252.22447978285066
31
1.2229168638170499e-13
0
LINE
5
138
100
AcDbEntity
8
BEND
100
AcDbLine
10
278.998959565701
20
252.22447978285066
30
6.4913153808467266e-13
11
293.95195956570086
21
252.22447978285066
31
6.9251169393552283e-13
0
LINE
5
139
100
AcDbEntity
8
BEND
100
AcDbLine
10
-14.049479782850547
20
16.375000000000064
30
-1.6150143076384977e-14
11
-14.049479782850547
21
37.5
31
-1.6150143076384977e-14
0
LINE
5
140
100
AcDbEntity
8
BEND
100
AcDbLine
10
-14.049479782850547
20
217.5
30
-1.6150143076384977e-14
11
-14.049479782850547
21
238.62499999999989
31
-1.6150143076384977e-14
0
LINE
5
141
100
AcDbEntity
8
BEND
100
AcDbLine
10
-16.825000000000081
20
252.22447978285021
30
4.127179165868873e-14
11
-3.2000000000000384
21
252.22447978285021
31
-2.9112793398954384e-14
0
LINE
5
142
100
AcDbEntity
8
BEND
100
AcDbLine
10
-3.2000000000000384
20
2.7755202171498183
30
-2.9112793398954258e-14
11
-16.825000000000081
21
2.7755202171498183
31
4.1271791658688856e-14
0
LINE
5
143
100
AcDbEntity
8
BEND_EXTENT
100
AcDbLine
10
314.77591913140191
20
177.49999999999997
30
7.5332446239920323e-13
11
314.77591913140191
21
167.49999999999997
31
7.5332446239920323e-13
0
LINE
5
144
100
AcDbEntity
8
BEND_EXTENT
100
AcDbLine
10
307.57695956570092
20
167.5
30
7.5020312556187542e-13
11
307.57695956570092
21
177.5
31
7.5020312556187542e-13
0
LINE
5
145
100
AcDbEntity
8
BEND_EXTENT
100
AcDbLine
10
278.99895956570094
20
248.62499999999997
30
6.6729547533077764e-13
11
293.95195956570086
21
248.62499999999997
31
7.1067563118162801e-13
0
LINE
5
146
100
AcDbEntity
8
BEND_EXTENT
100
AcDbLine
10
82.398959565700977
20
248.62499999999997
30
9.693911605322612e-14
11
97.398959565700977
21
248.62499999999997
31
1.4045562362781042e-13
0
LINE
5
147
100
AcDbEntity
8
BEND_EXTENT
100
AcDbLine
10
68.998959565700943
20
127.49999999999999
30
5.8064369286597304e-14
11
68.998959565700943
21
255
31
5.8064369286597304e-14
0
LINE
5
148
100
AcDbEntity
8
BEND_EXTENT
100
AcDbLine
10
68.998959565700943
20
127.49999999999999
30
5.8064369286597304e-14
11
68.998959565700943
21
0
31
5.8064369286597304e-14
0
LINE
5
149
100
AcDbEntity
8
BEND_EXTENT
100
AcDbLine
10
82.398959565700977
20
6.3750000000000284
30
9.693911605322612e-14
11
97.398959565700977
21
6.3750000000000284
31
1.4045562362781042e-13
0
LINE
5
150
100
AcDbEntity
8
BEND_EXTENT
100
AcDbLine
10
278.99895956570094
20
6.3750000000000284
30
6.6729547533077764e-13
11
293.95195956570086
21
6.3750000000000284
31
7.1067563118162801e-13
0
LINE
5
151
100
AcDbEntity
8
BEND_EXTENT
100
AcDbLine
10
-17.64895956570097
20
238.62499999999989
30
-5.1201405508290639e-14
11
-17.64895956570097
21
217.5
31
-5.1201405508290639e-14
0
LINE
5
152
100
AcDbEntity
8
BEND_EXTENT
100
AcDbLine
10
293.95195956570086
20
255.82395956570141
30
6.75148494393623e-13
11
278.998959565701
21
255.82395956570141
31
6.3176833854277273e-13
0
LINE
5
153
100
AcDbEntity
8
BEND_EXTENT
100
AcDbLine
10
-3.2000000000000384
20
255.82395956570048
30
-2.7047090009913977e-14
11
-16.825000000000081
21
255.82395956570048
31
5.7770394367856046e-14
0
LINE
5
154
100
AcDbEntity
8
BEND_EXTENT
100
AcDbLine
10
97.39895956570092
20
255.82395956570144
30
1.0492848683980516e-13
11
82.39895956570092
21
255.82395956570144
31
6.1411979265220859e-14
0
LINE
5
155
100
AcDbEntity
8
BEND_EXTENT
100
AcDbLine
10
-10.450000000000017
20
217.5
30
2.2974204905047093e-14
11
-10.450000000000017
21
238.62499999999989
31
2.2974204905047093e-14
0
LINE
5
156
100
AcDbEntity
8
BEND_EXTENT
100
AcDbLine
10
-16.825000000000081
20
248.62499999999994
30
4.4796891858485321e-15
11
-3.2000000000000028
21
248.62499999999994
31
8.4800467780911586e-15
0
LINE
5
157
100
AcDbEntity
8
BEND_EXTENT
100
AcDbLine
10
61.799999999999962
20
254.99999999999994
30
1.6523272672622017e-15
11
61.799999999999962
21
127.49999999999997
31
1.6523272672622017e-15
0
LINE
5
158
100
AcDbEntity
8
BEND_EXTENT
100
AcDbLine
10
61.799999999999962
20
3.5527136788005009e-14
30
1.6523272672622017e-15
11
61.799999999999962
21
127.49999999999997
31
1.6523272672622017e-15
0
LINE
5
159
100
AcDbEntity
8
BEND_EXTENT
100
AcDbLine
10
-17.64895956570097
20
16.375000000000064
30
-5.1201405508290639e-14
11
-17.64895956570097
21
37.5
31
-5.1201405508290639e-14
0
LINE
5
160
100
AcDbEntity
8
BEND_EXTENT
100
AcDbLine
10
293.95195956570086
20
-0.82395956570142204
30
6.75148494393623e-13
11
278.998959565701
21
-0.82395956570142204
31
6.3176833854277273e-13
0
LINE
5
161
100
AcDbEntity
8
BEND_EXTENT
100
AcDbLine
10
-3.2000000000000384
20
-0.8239595657004628
30
-2.7047090009913977e-14
11
-16.825000000000081
21
-0.8239595657004628
31
5.7770394367856046e-14
0
LINE
5
162
100
AcDbEntity
8
BEND_EXTENT
100
AcDbLine
10
97.39895956570092
20
-0.82395956570145756
30
1.0492848683980516e-13
11
82.39895956570092
21
-0.82395956570145756
31
6.1411979265220859e-14
0
LINE
5
163
100
AcDbEntity
8
BEND_EXTENT
100
AcDbLine
10
-10.450000000000017
20
37.5
30
2.2974204905047093e-14
11
-10.450000000000017
21
16.375000000000064
31
2.2974204905047093e-14
0
LINE
5
164
100
AcDbEntity
8
BEND_EXTENT
100
AcDbLine
10
-16.825000000000081
20
6.3750000000000284
30
4.4796891858485321e-15
11
-3.2000000000000028
21
6.3750000000000284
31
8.4800467780911586e-15
0
ENDSEC
0
SECTION
2
OBJECTS
0
DICTIONARY
5
C
100
AcDbDictionary
3
ACAD_GROUP
350
D
3
ACAD_MLINESTYLE
350
17
0
DICTIONARY
5
D
100
AcDbDictionary
0
DICTIONARY
5
1A
330
C
100
AcDbDictionary
0
DICTIONARY
5
17
100
AcDbDictionary
0
ENDSEC
0
EOF
