0
SECTION
2
HEADER
9
$INSUNITS
70
4
9
$ACADVER
1
AC1014
9
$HANDSEED
5
FFFF
0
ENDSEC
0
SECTION
2
TABLES
0
TABLE
2
VPORT
5
8
100
AcDbSymbolTable
0
ENDTAB
0
TABLE
2
LTYPE
5
5
100
AcDbSymbolTable
0
LTYPE
5
14
100
AcDbSymbolTableRecord
100
AcDbLinetypeTableRecord
2
BYBLOCK
70
0
0
LTYPE
5
15
100
AcDbSymbolTableRecord
100
AcDbLinetypeTableRecord
2
BYLAYER
70
0
0
ENDTAB
0
TABLE
2
LAYER
5
2
100
AcDbSymbolTable
70
2
0
LAYER
5
50
100
AcDbSymbolTableRecord
100
AcDbLayerTableRecord
2
0
70
0
6
CONTINUOUS
0
ENDTAB
0
TABLE
2
STYLE
5
3
100
AcDbSymbolTable
70
1
0
STYLE
5
11
100
AcDbSymbolTableRecord
100
AcDbTextStyleTableRecord
2
STANDARD
70
0
0
ENDTAB
0
TABLE
2
VIEW
5
6
100
AcDbSymbolTable
70
0
0
ENDTAB
0
TABLE
2
UCS
5
7
100
AcDbSymbolTable
70
0
0
ENDTAB
0
TABLE
2
APPID
5
9
100
AcDbSymbolTable
70
2
0
APPID
5
12
100
AcDbSymbolTableRecord
100
AcDbRegAppTableRecord
2
ACAD
70
0
0
ENDTAB
0
TABLE
2
DIMSTYLE
5
A
100
AcDbSymbolTable
70
1
0
ENDTAB
0
TABLE
2
BLOCK_RECORD
5
1
100
AcDbSymbolTable
70
1
0
BLOCK_RECORD
5
1F
100
AcDbSymbolTableRecord
100
AcDbBlockTableRecord
2
*MODEL_SPACE
0
BLOCK_RECORD
5
1B
100
AcDbSymbolTableRecord
100
AcDbBlockTableRecord
2
*PAPER_SPACE
0
ENDTAB
0
ENDSEC
0
SECTION
2
BLOCKS
0
BLOCK
5
20
100
AcDbEntity
100
AcDbBlockBegin
2
*MODEL_SPACE
0
ENDBLK
5
21
100
AcDbEntity
100
AcDbBlockEnd
0
BLOCK
5
1C
100
AcDbEntity
100
AcDbBlockBegin
2
*PAPER_SPACE
0
ENDBLK
5
1D
100
AcDbEntity
100
AcDbBlockEnd
0
ENDSEC
0
SECTION
2
ENTITIES
0
LWPOLYLINE
5
100
100
AcDbEntity
8
OUTER_PROFILES
100
AcDbPolyline
90
10
70
1
43
0.0
10
299.61158610891812
20
3.1999999876061125
10
299.61158610891812
20
4.2632564145606011e-13
10
272.65520105618555
20
2.8421709430404007e-13
10
268.25583687755454
20
2.4868995751603507e-13
10
172.58448160392521
20
3.5527136788005009e-14
10
169.78488621735391
20
7.1054273576010019e-14
10
0
20
0
10
-4.9872994623001432e-10
20
3.1999999608304108
10
-4.9986681460723048e-10
20
261.39999999999998
10
299.61158610891692
20
261.39999999999975
0
LWPOLYLINE
5
101
100
AcDbEntity
8
INTERIOR_PROFILES
100
AcDbPolyline
90
6
70
1
43
0.0
10
104.26743502887564
20
98.209558313936071
10
101.28311558008086
20
96.450627551357542
10
101.3142345795744
20
92.986665714404012
10
104.32967302786275
20
91.281634640029026
10
107.31399247665755
20
93.040565402607569
10
107.282873477164
20
96.504527239561085
0
LWPOLYLINE
5
102
100
AcDbEntity
8
INTERIOR_PROFILES
100
AcDbPolyline
90
6
70
1
43
0.0
10
92.616798617627438
20
96.37277244617465
10
89.601360169339088
20
98.077803520549651
10
86.61704072054431
20
96.318872757971121
10
86.648159720037853
20
92.854910921017577
10
89.663598168326203
20
91.149879846642591
10
92.64791761712101
20
92.908810609221121
0
LWPOLYLINE
5
103
100
AcDbEntity
8
INTERIOR_PROFILES
100
AcDbPolyline
90
7
70
1
43
0.0
10
116.06329343776042
20
83.881188942581005
10
116.09441243725399
20
80.417227105627461
10
118.66520649895783
20
78.963613033845689
10
119.53642176971783
20
78.963613033845675
10
122.09417033433712
20
80.471126793831019
10
122.06305133484356
20
83.935088630784549
10
119.04761288655523
20
85.640119705159549
0
LWPOLYLINE
5
104
100
AcDbEntity
8
INTERIOR_PROFILES
100
AcDbPolyline
90
7
70
1
43
0.0
10
97.872625458227915
20
78.963613033845689
10
100.09505804503229
20
80.273494603751359
10
100.06393904553875
20
83.737456440704889
10
97.048500597250396
20
85.442487515079875
10
94.064181148455617
20
83.683556752501346
10
94.095300147949175
20
80.219594915547802
10
96.316571134359975
20
78.963613033845718
0
LWPOLYLINE
5
105
100
AcDbEntity
8
INTERIOR_PROFILES
100
AcDbPolyline
90
6
70
1
43
0.0
10
71.325818093989909
20
91.562513327735104
10
68.341498645195117
20
89.80358256515656
10
68.37261764468866
20
86.33962072820303
10
71.388056092977024
20
84.634589653828016
10
74.372375541771802
20
86.393520416406574
10
74.341256542278245
20
89.857482253360104
0
LWPOLYLINE
5
106
100
AcDbEntity
8
INTERIOR_PROFILES
100
AcDbPolyline
90
6
70
1
43
0.0
10
137.38539296089152
20
85.227486224067022
10
140.36971240968631
20
86.986416986645565
10
140.33859341019274
20
90.450378823599081
10
137.32315496190441
20
92.155409897974096
10
134.33883551310961
20
90.396479135395538
10
134.36995451260319
20
86.932517298442008
0
LWPOLYLINE
5
107
100
AcDbEntity
8
INTERIOR_PROFILES
100
AcDbPolyline
90
6
70
1
43
0.0
10
100.65796781306304
20
91.826022914508002
10
97.673648364268217
20
90.06709215192943
10
97.704767363761789
20
86.603130314975914
10
100.72020581205012
20
84.898099240600914
10
103.70452526084492
20
86.657030003179457
10
103.67340626135137
20
90.120991840132973
0
LWPOLYLINE
5
108
100
AcDbEntity
8
INTERIOR_PROFILES
100
AcDbPolyline
90
6
70
1
43
0.0
10
148.37976260562834
20
85.903629291932447
10
145.39544315683355
20
84.144698529353889
10
145.42656215632712
20
80.680736692400345
10
148.44200060461546
20
78.975705618025373
10
151.42632005341025
20
80.734636380603888
10
151.39520105391668
20
84.198598217557432
0
LWPOLYLINE
5
109
100
AcDbEntity
8
INTERIOR_PROFILES
100
AcDbPolyline
90
6
70
1
43
0.0
10
77.950723758090874
20
96.241017652788202
10
74.935285309802552
20
97.946048727163202
10
71.950965861007745
20
96.187117964584672
10
71.982084860501303
20
92.723156127631142
10
74.997523308789653
20
91.018125053256142
10
77.981842757584431
20
92.777055815834672
0
LWPOLYLINE
5
110
100
AcDbEntity
8
INTERIOR_PROFILES
100
AcDbPolyline
90
6
70
1
43
0.0
10
121.9800673361941
20
93.17232019599399
10
121.94894833670055
20
96.63628203294752
10
118.9335098884122
20
98.34131310732252
10
115.94919043961741
20
96.582382344743976
10
115.98030943911097
20
93.118420507790461
10
118.99574788739932
20
91.41338943341546
0
LWPOLYLINE
5
111
100
AcDbEntity
8
INTERIOR_PROFILES
100
AcDbPolyline
90
6
70
1
43
0.0
10
60.925477216777381
20
98.974936733672791
10
63.94091566506571
20
97.269905659297791
10
66.925235113860509
20
99.028836421876335
10
66.894116114366952
20
102.49279825882986
10
63.878677666078602
20
104.19782933320485
10
60.89435821728383
20
102.43889857062634
0
LWPOLYLINE
5
112
100
AcDbEntity
8
INTERIOR_PROFILES
100
AcDbPolyline
90
6
70
1
43
0.0
10
143.83395762786236
20
109.53510762519016
10
140.81851917957403
20
111.24013869956515
10
137.83419973077923
20
109.48120793698662
10
137.86531873027278
20
106.01724610003309
10
140.88075717856111
20
104.31221502565808
10
143.8650766273559
20
106.07114578823662
0
LWPOLYLINE
5
113
100
AcDbEntity
8
INTERIOR_PROFILES
100
AcDbPolyline
90
6
70
1
43
0.0
10
78.430649527472141
20
117.03077752875427
10
75.446330078677335
20
115.27184676617574
10
75.477449078170906
20
111.8078849292222
10
78.492887526459242
20
110.10285385484721
10
81.47720697525402
20
111.86178461742574
10
81.446087975760477
20
115.3257464543793
0
LWPOLYLINE
5
114
100
AcDbEntity
8
INTERIOR_PROFILES
100
AcDbPolyline
90
6
70
1
43
0.0
10
151.05289205948759
20
122.30217842404635
10
148.03745361119925
20
124.00720949842136
10
145.05313416240446
20
122.24827873584282
10
145.08425316189803
20
118.78431689888927
10
148.09969161018637
20
117.07928582451429
10
151.08401105898116
20
118.83821658709282
0
LWPOLYLINE
5
115
100
AcDbEntity
8
INTERIOR_PROFILES
100
AcDbPolyline
90
6
70
1
43
0.0
10
134.14174851631711
20
112.33490410276795
10
137.15718696460547
20
110.62987302839296
10
140.14150641340026
20
112.38880379097151
10
140.11038741390672
20
115.85276562792504
10
137.09494896561836
20
117.55779670230004
10
134.11062951682356
20
115.79886593972149
0
LWPOLYLINE
5
116
100
AcDbEntity
8
INTERIOR_PROFILES
100
AcDbPolyline
90
6
70
1
43
0.0
10
107.82503724553236
20
110.36636344162008
10
110.80935669432714
20
112.12529420419862
10
110.77823769483359
20
115.58925604115217
10
107.76279924654524
20
117.29428711552715
10
104.77847979775046
20
115.53535635294864
10
104.80959879724401
20
112.0713945159951
0
LWPOLYLINE
5
117
100
AcDbEntity
8
INTERIOR_PROFILES
100
AcDbPolyline
90
7
70
1
43
0.0
10
75.049388307945563
20
85.244855325000231
10
72.06506885915077
20
83.485924562421673
10
72.096187858644328
20
80.021962725468143
10
74.088030530243543
20
78.895707386954939
10
76.093615889337102
20
78.895707386954939
10
78.09594575572747
20
80.0758624136717
10
78.064826756233884
20
83.53982425062523
0
LWPOLYLINE
5
118
100
AcDbEntity
8
INTERIOR_PROFILES
100
AcDbPolyline
90
6
70
1
43
0.0
10
89.373154173053024
20
123.48019032487559
10
86.388834724258246
20
121.72125956229706
10
86.419953723751803
20
118.25729772534352
10
89.435392172040139
20
116.55226665096855
10
92.419711620834931
20
118.31119741354705
10
92.388592621341388
20
121.77515925050059
0
LWPOLYLINE
5
119
100
AcDbEntity
8
INTERIOR_PROFILES
100
AcDbPolyline
90
6
70
1
43
0.0
10
133.03667497991802
20
86.920539589952313
10
133.00555598042448
20
90.384501426905857
10
129.99011753213614
20
92.089532501280871
10
127.00579808334135
20
90.330601738702327
10
127.03691708283489
20
86.866639901748798
10
130.05235553112325
20
85.161608827373797
0
LWPOLYLINE
5
120
100
AcDbEntity
8
INTERIOR_PROFILES
100
AcDbPolyline
90
6
70
1
43
0.0
10
115.72098444333135
20
121.98476914906993
10
115.7521034428249
20
118.5208073121164
10
118.76754189111325
20
116.8157762377414
10
121.75186133990805
20
118.57470700031995
10
121.72074234041449
20
122.03866883727346
10
118.70530389212615
20
123.74369991164848
0
LWPOLYLINE
5
121
100
AcDbEntity
8
INTERIOR_PROFILES
100
AcDbPolyline
90
6
70
1
43
0.0
10
60.1458624244502
20
103.62798258745116
10
60.217345451110056
20
103.58756366203266
10
63.201664899904841
20
105.34649442461122
10
63.170545900411298
20
108.81045626156475
10
60.155107452122948
20
110.51548733593975
10
60.145862424450215
20
110.51003840064527
0
LWPOLYLINE
5
122
100
AcDbEntity
8
INTERIOR_PROFILES
100
AcDbPolyline
90
6
70
1
43
0.0
10
104.89258279589347
20
102.83416295078567
10
104.92370179538703
20
99.370201113832124
10
107.93914024367538
20
97.665170039457109
10
110.92345969247017
20
99.424100802035653
10
110.8923406929766
20
102.88806263898918
10
107.8769022446883
20
104.59309371336418
0
LWPOLYLINE
5
123
100
AcDbEntity
8
INTERIOR_PROFILES
100
AcDbPolyline
90
7
70
1
43
0.0
10
126.75768720688113
20
78.963613033845661
10
129.42720776410542
20
80.537004190524243
10
129.39608876461185
20
84.000966027477773
10
126.38065031632351
20
85.705997101852773
10
123.3963308675287
20
83.947066339274215
10
123.42744986702228
20
80.483104502320671
10
126.11475162049047
20
78.963613033845661
0
LWPOLYLINE
5
124
100
AcDbEntity
8
INTERIOR_PROFILES
100
AcDbPolyline
90
7
70
1
43
0.0
10
70.731789326465631
20
83.473946853931992
10
67.71635087817728
20
85.178977928307006
10
64.732031429382488
20
83.420047165728462
10
64.763150428876045
20
79.956085328774947
10
66.638485408710949
20
78.895707386954911
10
68.872350452173777
20
78.895707386954911
10
70.762908325959188
20
80.009985016978476
0
LWPOLYLINE
5
125
100
AcDbEntity
8
INTERIOR_PROFILES
100
AcDbPolyline
90
6
70
1
43
0.0
10
78.544752525615166
20
104.3295841265913
10
75.56043307682036
20
102.57065336401277
10
75.591552076313931
20
99.10669152705924
10
78.606990524602267
20
97.40166045268424
10
81.591309973397045
20
99.16059121526277
10
81.560190973903488
20
102.62455305221633
0
LWPOLYLINE
5
126
100
AcDbEntity
8
INTERIOR_PROFILES
100
AcDbPolyline
90
4
70
1
43
0.0
10
155.28167371823238
20
85.715404755227183
10
152.72848058660182
20
84.210575926047099
10
152.75959958609539
20
80.746614089093569
10
155.28167371823238
20
79.3205479163246
0
LWPOLYLINE
5
127
100
AcDbEntity
8
INTERIOR_PROFILES
100
AcDbPolyline
90
6
70
1
43
0.0
10
151.93736482228505
20
98.060434419616428
10
154.92168427107981
20
99.819365182194986
10
154.89056527158627
20
103.28332701914852
10
151.87512682329793
20
104.9883580935235
10
148.89080737450314
20
103.22942733094496
10
148.92192637399668
20
99.765465493991428
0
LWPOLYLINE
5
128
100
AcDbEntity
8
INTERIOR_PROFILES
100
AcDbPolyline
90
6
70
1
43
0.0
10
85.200777189209674
20
105.54412661469087
10
85.169658189716131
20
109.00808845164441
10
82.154219741427795
20
110.71311952601938
10
79.169900292633002
20
108.95418876344087
10
79.201019292126546
20
105.49022692648734
10
82.21645774041491
20
103.78519585211234
0
LWPOLYLINE
5
129
100
AcDbEntity
8
INTERIOR_PROFILES
100
AcDbPolyline
90
6
70
1
43
0.0
10
82.665264510302592
20
128.03891756503194
10
82.696383509796135
20
124.57495572807841
10
85.711821958084485
20
122.86992465370341
10
88.696141406879292
20
124.62885541628194
10
88.66502240738572
20
128.09281725323547
10
85.649583959097384
20
129.7978483276105
0
LWPOLYLINE
5
130
100
AcDbEntity
8
INTERIOR_PROFILES
100
AcDbPolyline
90
6
70
1
43
0.0
10
96.25738483293361
20
99.292346008649218
10
96.226265833440067
20
102.75630784560275
10
93.210827385151731
20
104.46133891997775
10
90.22650793635691
20
102.70240815739922
10
90.257626935850482
20
99.238446320445661
10
93.273065384138818
20
97.53341524607066
0
LWPOLYLINE
5
131
100
AcDbEntity
8
INTERIOR_PROFILES
100
AcDbPolyline
90
7
70
1
43
0.0
10
105.09389089539124
20
78.963613033845718
10
107.42809547480057
20
80.339372000444556
10
107.39697647530701
20
83.8033338373981
10
104.38153802701869
20
85.5083649117731
10
101.39721857822387
20
83.749434149194556
10
101.42833757771743
20
80.285472312241026
10
103.7661162558926
20
78.963613033845689
0
LWPOLYLINE
5
132
100
AcDbEntity
8
INTERIOR_PROFILES
100
AcDbPolyline
90
6
70
1
43
0.0
10
140.22449041204973
20
103.15157222576207
10
137.2090519637614
20
104.85660330013707
10
134.2247325149666
20
103.09767253755852
10
134.25585151446015
20
99.633710700604979
10
137.27128996274848
20
97.928679626229993
10
140.25560941154328
20
99.687610388808537
0
LWPOLYLINE
5
133
100
AcDbEntity
8
INTERIOR_PROFILES
100
AcDbPolyline
90
6
70
1
43
0.0
10
61.039580214920406
20
86.27374333150982
10
64.055018663208742
20
84.568712257134834
10
67.039338112003549
20
86.327643019713364
10
67.008219112509991
20
89.791604856666879
10
63.992780664221627
20
91.496635931041908
10
61.008461215426863
20
89.737705168463322
0
LWPOLYLINE
5
134
100
AcDbEntity
8
INTERIOR_PROFILES
100
AcDbPolyline
90
6
70
1
43
0.0
10
93.324930383294742
20
91.760145517814777
10
90.340610934499949
20
90.001214755236219
10
90.371729933993507
20
86.53725291828269
10
93.387168382281857
20
84.832221843907689
10
96.371487831076649
20
86.591152606486204
10
96.340368831583092
20
90.055114443439749
0
LWPOLYLINE
5
135
100
AcDbEntity
8
INTERIOR_PROFILES
100
AcDbPolyline
90
6
70
1
43
0.0
10
108.53316901119966
20
105.75373651326021
10
111.54860745948801
20
104.04870543888521
10
114.53292690828279
20
105.80763620146374
10
114.50180790878925
20
109.2715980384173
10
111.4863694605009
20
110.97662911279228
10
108.5020500117061
20
109.21769835021374
0
LWPOLYLINE
5
136
100
AcDbEntity
8
INTERIOR_PROFILES
100
AcDbPolyline
90
6
70
1
43
0.0
10
122.54297710422483
20
104.72484850675062
10
119.55865765543003
20
102.96591774417209
10
119.58977665492358
20
99.501955907218544
10
122.60521510321195
20
97.796924832843558
10
125.58953455200673
20
99.555855595422088
10
125.55841555251317
20
103.01981743237562
0
LWPOLYLINE
5
137
100
AcDbEntity
8
INTERIOR_PROFILES
100
AcDbPolyline
90
4
70
1
43
0.0
10
60.145862424450236
20
123.1573904885706
10
60.145862424450215
20
116.31387688807116
10
63.087561901761816
20
118.04768782677419
10
63.056442902268266
20
121.51164966372772
0
LWPOLYLINE
5
138
100
AcDbEntity
8
INTERIOR_PROFILES
100
AcDbPolyline
90
6
70
1
43
0.0
10
115.0439716771576
20
123.13343424047629
10
118.02829112595239
20
124.89236500305482
10
117.99717212645885
20
128.35632684000836
10
114.98173367817049
20
130.06135791438336
10
111.99741422937571
20
128.30242715180481
10
112.02853322886925
20
124.83846531485128
0
LWPOLYLINE
5
139
100
AcDbEntity
8
INTERIOR_PROFILES
100
AcDbPolyline
90
6
70
1
43
0.0
10
92.160386625055324
20
147.17754605482656
10
89.144948176766974
20
148.88257712920154
10
86.160628727972181
20
147.12364636662301
10
86.191747727465753
20
143.65968452966948
10
89.207186175754089
20
141.95465345529448
10
92.191505624548881
20
143.71358421787303
0
LWPOLYLINE
5
140
100
AcDbEntity
8
INTERIOR_PROFILES
100
AcDbPolyline
90
6
70
1
43
0.0
10
86.077644729322714
20
156.36087793183245
10
89.093083177611049
20
154.65584685745745
10
92.077402626405842
20
156.41477762003601
10
92.046283626912299
20
159.87873945698954
10
89.030845178623949
20
161.58377053136451
10
86.046525729829156
20
159.82483976878601
0
LWPOLYLINE
5
141
100
AcDbEntity
8
INTERIOR_PROFILES
100
AcDbPolyline
90
6
70
1
43
0.0
10
81.98825174412886
20
129.18758265643828
10
84.972571192923638
20
130.94651341901681
10
84.941452193430081
20
134.41047525597037
10
81.926013745141745
20
136.11550633034537
10
78.941694296346938
20
134.35657556776681
10
78.972813295840496
20
130.89261373081328
0
LWPOLYLINE
5
142
100
AcDbEntity
8
INTERIOR_PROFILES
100
AcDbPolyline
90
6
70
1
43
0.0
10
137.6371127339867
20
131.41963290435905
10
140.65255118227506
20
129.71460182998405
10
143.63687063106983
20
131.47353259256258
10
143.60575163157631
20
134.93749442951611
10
140.59031318328795
20
136.64252550389111
10
137.60599373449315
20
134.88359474131258
0
LWPOLYLINE
5
143
100
AcDbEntity
8
INTERIOR_PROFILES
100
AcDbPolyline
90
7
70
1
43
0.0
10
111.59351423989891
20
174.0994243276275
10
110.26573960040037
20
174.0994243276275
10
107.93153502099096
20
172.72366536102862
10
107.96265402048451
20
169.25970352407512
10
110.97809246877287
20
167.55467244970009
10
113.96241191756765
20
169.31360321227862
10
113.93129291807409
20
172.77756504923218
0
LWPOLYLINE
5
144
100
AcDbEntity
8
INTERIOR_PROFILES
100
AcDbPolyline
90
6
70
1
43
0.0
10
75.218124082391299
20
140.67423357050168
10
75.249243081884856
20
137.21027173354815
10
78.264681530173178
20
135.50524065917315
10
81.24900097896797
20
137.26417142175168
10
81.217881979474413
20
140.72813325870524
10
78.202443531186077
20
142.43316433308021
0
LWPOLYLINE
5
145
100
AcDbEntity
8
INTERIOR_PROFILES
100
AcDbPolyline
90
6
70
1
43
0.0
10
84.74436519663756
20
156.34890022334278
10
84.713246197144016
20
159.81286206029631
10
81.697807748855681
20
161.51789313467131
10
78.713488300060874
20
159.75896237209275
10
78.744607299554431
20
156.29500053513922
10
81.760045747842796
20
154.58996946076422
0
LWPOLYLINE
5
146
100
AcDbEntity
8
INTERIOR_PROFILES
100
AcDbPolyline
90
6
70
1
43
0.0
10
63.370400674350584
20
160.77587267011268
10
66.354720123145356
20
162.53480343269121
10
66.323601123651827
20
165.99876526964476
10
63.308162675363477
20
167.70379634401974
10
60.32384322656867
20
165.94486558144121
10
60.354962226062234
20
162.48090374448768
0
LWPOLYLINE
5
147
100
AcDbEntity
8
INTERIOR_PROFILES
100
AcDbPolyline
90
6
70
1
43
0.0
10
80.989675983188363
20
166.13052006303118
10
77.974237534900027
20
167.83555113740618
10
74.989918086105234
20
166.07662037482766
10
75.021037085598792
20
162.6126585378741
10
78.036475533887128
20
160.90762746349913
10
81.020794982681934
20
162.66655822607765
0
LWPOLYLINE
5
148
100
AcDbEntity
8
INTERIOR_PROFILES
100
AcDbPolyline
90
6
70
1
43
0.0
10
147.36044084502549
20
125.15587458982768
10
147.32932184553195
20
128.61983642678123
10
144.31388339724361
20
130.32486750115623
10
141.32956394844879
20
128.5659367385777
10
141.36068294794237
20
125.10197490162415
10
144.37612139623073
20
123.39694382724917
0
LWPOLYLINE
5
149
100
AcDbEntity
8
INTERIOR_PROFILES
100
AcDbPolyline
90
6
70
1
43
0.0
10
108.30496301491362
20
131.15612331758615
10
111.32040146320195
20
129.45109224321118
10
114.30472091199674
20
131.21002300578968
10
114.27360191250318
20
134.67398484274324
10
111.25816346421485
20
136.37901591711824
10
108.27384401542005
20
134.62008515453971
0
LWPOLYLINE
5
150
100
AcDbEntity
8
INTERIOR_PROFILES
100
AcDbPolyline
90
6
70
1
43
0.0
10
67.031732889319102
20
161.38613834128489
10
64.047413440524338
20
159.62720757870633
10
64.078532440017867
20
156.1632457417528
10
67.093970888306217
20
154.4582146673778
10
70.078290337101009
20
156.21714542995633
10
70.047171337607466
20
159.68110726690986
0
LWPOLYLINE
5
151
100
AcDbEntity
8
INTERIOR_PROFILES
100
AcDbPolyline
90
6
70
1
43
0.0
10
110.46704769989805
20
150.22887441068755
10
110.4359287004045
20
153.69283624764108
10
107.42049025211617
20
155.39786732201608
10
104.43617080332135
20
153.63893655943755
10
104.46728980281492
20
150.17497472248402
10
107.48272825110327
20
148.46994364810902
0
LWPOLYLINE
5
152
100
AcDbEntity
8
INTERIOR_PROFILES
100
AcDbPolyline
90
6
70
1
43
0.0
10
103.81102303630354
20
149.01433192258798
10
100.82670358750875
20
147.25540116000946
10
100.85782258700232
20
143.79143932305593
10
103.87326103529064
20
142.08640824868093
10
106.85758048408543
20
143.84533901125945
10
106.82646148459187
20
147.30930084821298
0
LWPOLYLINE
5
153
100
AcDbEntity
8
INTERIOR_PROFILES
100
AcDbPolyline
90
6
70
1
43
0.0
10
60.583168222348291
20
137.07851694016173
10
63.598606670636642
20
135.37348586578673
10
66.58292611943142
20
137.13241662836526
10
66.551807119937877
20
140.59637846531879
10
63.536368671649527
20
142.30140953969379
10
60.552049222854748
20
140.54247877711526
0
LWPOLYLINE
5
154
100
AcDbEntity
8
INTERIOR_PROFILES
100
AcDbPolyline
90
6
70
1
43
0.0
10
96.426120607379332
20
154.7217242541507
10
99.410440056174139
20
156.4806550167292
10
99.379321056680567
20
159.94461685368276
10
96.363882608392245
20
161.64964792805776
10
93.379563159597438
20
159.8907171654792
10
93.41068215909101
20
156.42675532852567
0
LWPOLYLINE
5
155
100
AcDbEntity
8
INTERIOR_PROFILES
100
AcDbPolyline
90
6
70
1
43
0.0
10
117.91418812780935
20
137.59355840521781
10
117.8830691283158
20
141.05752024217134
10
114.86763068002746
20
142.76255131654634
10
111.88331123123265
20
141.00362055396778
10
111.91443023072623
20
137.53965871701425
10
114.92986867901458
20
135.83462764263925
0
LWPOLYLINE
5
156
100
AcDbEntity
8
INTERIOR_PROFILES
100
AcDbPolyline
90
6
70
1
43
0.0
10
155.09042004552555
20
155.24874342769644
10
155.28167371823224
20
155.36146660433752
10
155.28167371823218
20
162.03333432106589
10
155.02818204653846
20
162.17666710160353
10
152.04386259774364
20
160.41773633902497
10
152.07498159723721
20
156.95377450207144
0
LWPOLYLINE
5
157
100
AcDbEntity
8
INTERIOR_PROFILES
100
AcDbPolyline
90
6
70
1
43
0.0
10
148.57961737956762
20
137.86904570048034
10
151.59505582785596
20
136.16401462610537
10
154.57937527665075
20
137.9229453886839
10
154.54825627715718
20
141.38690722563746
10
151.53281782886884
20
143.09193830001243
10
148.54849838007405
20
141.3330075374339
0
LWPOLYLINE
5
158
100
AcDbEntity
8
INTERIOR_PROFILES
100
AcDbPolyline
90
6
70
1
43
0.0
10
133.09130775622071
20
155.05111123761677
10
136.07562720501551
20
156.81004200019532
10
136.04450820552194
20
160.27400383714883
10
133.02906975723363
20
161.97903491152385
10
130.04475030843881
20
160.22010414894532
10
130.07586930793238
20
156.75614231199177
0
LWPOLYLINE
5
159
100
AcDbEntity
8
INTERIOR_PROFILES
100
AcDbPolyline
90
6
70
1
43
0.0
10
124.98790056179803
20
166.5257844431905
10
121.97246211350969
20
168.23081551756553
10
118.9881426647149
20
166.47188475498697
10
119.01926166420844
20
163.00792291803344
10
122.03470011249679
20
161.30289184365841
10
125.01901956129159
20
163.06182260623697
0
LWPOLYLINE
5
160
100
AcDbEntity
8
INTERIOR_PROFILES
100
AcDbPolyline
90
6
70
1
43
0.0
10
143.97157440281453
20
168.42844770764518
10
140.98725495401973
20
166.66951694506665
10
141.01837395351328
20
163.20555510811312
10
144.03381240180164
20
161.50052403373809
10
147.01813185059643
20
163.25945479631662
10
146.98701285110286
20
166.72341663327018
0
LWPOLYLINE
5
161
100
AcDbEntity
8
INTERIOR_PROFILES
100
AcDbPolyline
90
6
70
1
43
0.0
10
144.71082516797537
20
160.35185894233172
10
144.74194416746894
20
156.88789710537822
10
147.75738261575728
20
155.18286603100321
10
150.74170206455207
20
156.94179679358174
10
150.7105830650585
20
160.4057586305353
10
147.69514461677016
20
162.1107897049103
0
LWPOLYLINE
5
162
100
AcDbEntity
8
INTERIOR_PROFILES
100
AcDbPolyline
90
6
70
1
43
0.0
10
128.71147077575367
20
160.20812644045563
10
125.69603232746533
20
161.91315751483063
10
122.71171287867055
20
160.1542267522521
10
122.7428318781641
20
156.69026491529854
10
125.75827032645245
20
154.98523384092354
10
128.74258977524724
20
156.7441646035021
0
CIRCLE
5
163
100
AcDbEntity
8
INTERIOR_PROFILES
100
AcDbCircle
10
-286.93302551360824
20
242.35604922405346
30
0
40
6.25
210
0
220
0
230
-1
0
LWPOLYLINE
5
164
100
AcDbEntity
8
INTERIOR_PROFILES
100
AcDbPolyline
90
6
70
1
43
0.0
10
133.14317275537664
20
149.27784150936088
10
130.15885330658188
20
147.51891074678235
10
130.18997230607542
20
144.05494890982879
10
133.20541075436375
20
142.34991783545379
10
136.18973020315855
20
144.10884859803232
10
136.158611203665
20
147.57281043498585
0
CIRCLE
5
165
100
AcDbEntity
8
INTERIOR_PROFILES
100
AcDbCircle
10
-285.20536603746052
20
54.262604929976263
30
0
40
6.0999999999999943
210
0
220
0
230
-1
0
CIRCLE
5
166
100
AcDbEntity
8
INTERIOR_PROFILES
100
AcDbCircle
10
-285.20536603746029
20
87.262604929975879
30
0
40
6.1000000000000121
210
0
220
0
230
-1
0
CIRCLE
5
167
100
AcDbEntity
8
INTERIOR_PROFILES
100
AcDbCircle
10
-19.437499999501124
20
30.137499974217885
30
0
40
1.590000000000007
210
0
220
0
230
-1
0
CIRCLE
5
168
100
AcDbEntity
8
INTERIOR_PROFILES
100
AcDbCircle
10
-285.20536603746041
20
70.76260492997605
30
0
40
6.1000000000000032
210
0
220
0
230
-1
0
CIRCLE
5
169
100
AcDbEntity
8
INTERIOR_PROFILES
100
AcDbCircle
10
-19.437499999500236
20
231.2624999742178
30
0
40
1.5899999999999892
210
0
220
0
230
-1
0
CIRCLE
5
170
100
AcDbEntity
8
INTERIOR_PROFILES
100
AcDbCircle
10
-285.20536603746024
20
103.76260492997567
30
0
40
6.1000000000000121
210
0
220
0
230
-1
0
CIRCLE
5
171
100
AcDbEntity
8
INTERIOR_PROFILES
100
AcDbCircle
10
-284.60536603746169
20
175.70000000000149
30
0
40
1.5899999999999892
210
0
220
0
230
-1
0
LWPOLYLINE
5
172
100
AcDbEntity
8
INTERIOR_PROFILES
100
AcDbPolyline
90
6
70
1
43
0.0
10
77.639533763155356
20
130.88063602232359
10
77.608414763661798
20
134.34459785927714
10
74.592976315373463
20
136.04962893365214
10
71.608656866578656
20
134.29069817107359
10
71.639775866072213
20
130.82673633412006
10
74.655214314360563
20
129.12170525974506
0
LWPOLYLINE
5
173
100
AcDbEntity
8
INTERIOR_PROFILES
100
AcDbPolyline
90
6
70
1
43
0.0
10
77.494311765518773
20
147.04579126144012
10
74.478873317230438
20
148.75082233581512
10
71.494553868435631
20
146.99189157323656
10
71.525672867929188
20
143.52792973628306
10
74.541111316217538
20
141.82289866190803
10
77.525430765012317
20
143.58182942448656
0
LWPOLYLINE
5
174
100
AcDbEntity
8
INTERIOR_PROFILES
100
AcDbPolyline
90
6
70
1
43
0.0
10
82.102354742271871
20
116.48638925427531
10
85.086674191066649
20
118.24532001685384
10
85.05555519157312
20
121.70928185380738
10
82.040116743284756
20
123.41431292818237
10
79.055797294489963
20
121.65538216560381
10
79.086916293983521
20
118.1914203286503
0
LWPOLYLINE
5
175
100
AcDbEntity
8
INTERIOR_PROFILES
100
AcDbPolyline
90
7
70
1
43
0.0
10
77.266105769232709
20
172.44817806576606
10
74.345788632236051
20
174.09942432762739
10
74.159412414583571
20
174.09942432762739
10
71.266347872149566
20
172.39427837756253
10
71.297466871643124
20
168.930316540609
10
74.312905319931474
20
167.22528546623403
10
77.297224768726267
20
168.98421622881256
0
LWPOLYLINE
5
176
100
AcDbEntity
8
INTERIOR_PROFILES
100
AcDbPolyline
90
6
70
1
43
0.0
10
147.44342484367499
20
115.91864302461826
10
144.42798639538663
20
117.62367409899326
10
141.44366694659183
20
115.86474333641473
10
141.4747859460854
20
112.40078149946117
10
144.49022439437374
20
110.69575042508619
10
147.47454384316853
20
112.4546811876647
0
LWPOLYLINE
5
177
100
AcDbEntity
8
INTERIOR_PROFILES
100
AcDbPolyline
90
6
70
1
43
0.0
10
111.02995746792878
20
161.78140272144418
10
108.045638019134
20
160.02247195886565
10
108.07675701862755
20
156.55851012191212
10
111.0921954669159
20
154.85347904753712
10
114.07651491571067
20
156.61240981011565
10
114.04539591621713
20
160.07637164706918
0
LWPOLYLINE
5
178
100
AcDbEntity
8
INTERIOR_PROFILES
100
AcDbPolyline
90
6
70
1
43
0.0
10
133.68533652374498
20
163.13967771141989
10
136.70077497203334
20
161.43464663704489
10
139.68509442082814
20
163.19357739962342
10
139.65397542133456
20
166.65753923657692
10
136.63853697304626
20
168.36257031095192
10
133.65421752425144
20
166.60363954837339
0
LWPOLYLINE
5
179
100
AcDbEntity
8
INTERIOR_PROFILES
100
AcDbPolyline
90
6
70
1
43
0.0
10
140.7666541804181
20
117.01340842782105
10
143.75097362921287
20
118.77233919039959
10
143.71985462971932
20
122.23630102735314
10
140.70441618143099
20
123.94133210172814
10
137.72009673263619
20
122.18240133914959
10
137.75121573212974
20
118.71843950219606
0
LWPOLYLINE
5
180
100
AcDbEntity
8
INTERIOR_PROFILES
100
AcDbPolyline
90
6
70
1
43
0.0
10
97.24835537118966
20
137.40790392362783
10
100.26379381947802
20
135.70287284925283
10
103.2481132682728
20
137.46180361183136
10
103.21699426877926
20
140.92576544878489
10
100.20155582049092
20
142.63079652315989
10
97.217236371696103
20
140.87186576058136
0
LWPOLYLINE
5
181
100
AcDbEntity
8
INTERIOR_PROFILES
100
AcDbPolyline
90
6
70
1
43
0.0
10
89.687111945135328
20
162.74441333126055
10
92.702550393423678
20
161.03938225688555
10
95.686869842218485
20
162.7983130194641
10
95.655750842724927
20
166.26227485641763
10
92.640312394436563
20
167.96730593079263
10
89.655992945641785
20
166.2083751682141
0
LWPOLYLINE
5
182
100
AcDbEntity
8
INTERIOR_PROFILES
100
AcDbPolyline
90
6
70
1
43
0.0
10
74.821182311659527
20
110.64724212932617
10
71.83686286286472
20
108.88831136674764
10
71.867981862358278
20
105.42434952979411
10
74.883420310646599
20
103.71931845541911
10
77.867739759441406
20
105.47824921799766
10
77.836620759947849
20
108.9422110549512
0
LWPOLYLINE
5
183
100
AcDbEntity
8
INTERIOR_PROFILES
100
AcDbPolyline
90
6
70
1
43
0.0
10
133.48548174980573
20
111.17426130287193
10
130.50116230101094
20
109.41533054029338
10
130.53228130050451
20
105.95136870333988
10
133.54771974879284
20
104.24633762896488
10
136.53203919758764
20
106.00526839154341
10
136.50092019809409
20
109.46923022849695
0
LWPOLYLINE
5
184
100
AcDbEntity
8
INTERIOR_PROFILES
100
AcDbPolyline
90
6
70
1
43
0.0
10
136.86674296933231
20
142.96018350662598
10
133.88242352053751
20
141.20125274404745
10
133.91354252003106
20
137.73729090709392
10
136.92898096831942
20
136.03225983271892
10
139.91330041711419
20
137.79119059529745
10
139.88218141762064
20
141.25515243225098
0
LWPOLYLINE
5
185
100
AcDbEntity
8
INTERIOR_PROFILES
100
AcDbPolyline
90
6
70
1
43
0.0
10
95.998059837154003
20
128.15869464992869
10
92.982621388865681
20
129.86372572430369
10
89.99830194007086
20
128.10479496172516
10
90.029420939564417
20
124.6408331247716
10
93.044859387852767
20
122.93580205039663
10
96.02917883664756
20
124.69473281297516
0
LWPOLYLINE
5
186
100
AcDbEntity
8
INTERIOR_PROFILES
100
AcDbPolyline
90
7
70
1
43
0.0
10
95.823208726073659
20
174.09942432762747
10
93.265460161454413
20
172.59191056764217
10
93.296579160947957
20
169.12794873068864
10
96.312017609236307
20
167.42291765631364
10
99.296337058031099
20
169.18184841889217
10
99.265218058537528
20
172.64581025584573
10
96.694423996833763
20
174.09942432762747
0
LWPOLYLINE
5
187
100
AcDbEntity
8
INTERIOR_PROFILES
100
AcDbPolyline
90
6
70
1
43
0.0
10
111.43450446134497
20
116.74989884104818
10
114.41882391013976
20
118.50882960362671
10
114.38770491064619
20
121.97279144058027
10
111.37226646235787
20
123.67782251495525
10
108.38794701356308
20
121.91889175237671
10
108.41906601305664
20
118.45492991542318
0
LWPOLYLINE
5
188
100
AcDbEntity
8
INTERIOR_PROFILES
100
AcDbPolyline
90
6
70
1
43
0.0
10
115.49277844704528
20
147.38715595339588
10
115.52389744653885
20
143.92319411644235
10
118.53933589482719
20
142.21816304206737
10
121.52365534362198
20
143.9770938046459
10
121.49253634412844
20
147.44105564159943
10
118.47709789584009
20
149.14608671597443
0
LWPOLYLINE
5
189
100
AcDbEntity
8
INTERIOR_PROFILES
100
AcDbPolyline
90
6
70
1
43
0.0
10
111.65510523494662
20
166.40600735829372
10
111.68622423444017
20
162.94204552134022
10
114.70166268272851
20
161.23701444696522
10
117.6859821315233
20
162.99594520954375
10
117.65486313202976
20
166.45990704649731
10
114.63942468374141
20
168.16493812087228
0
LWPOLYLINE
5
190
100
AcDbEntity
8
INTERIOR_PROFILES
100
AcDbPolyline
90
6
70
1
43
0.0
10
143.94806062600537
20
96.833914223027193
10
140.93262217771704
20
98.538945297402179
10
137.94830272892224
20
96.78001453482365
10
137.97942172841579
20
93.31605269787012
10
140.99486017670415
20
91.611021623495134
10
143.97917962549894
20
93.369952386073649
0
LWPOLYLINE
5
191
100
AcDbEntity
8
INTERIOR_PROFILES
100
AcDbPolyline
90
6
70
1
43
0.0
10
151.70915882599897
20
123.4628212239424
10
154.69347827479379
20
125.22175198652093
10
154.66235927530022
20
128.68571382347446
10
151.64692082701188
20
130.39074489784946
10
148.66260137821709
20
128.6318141352709
10
148.69372037771063
20
125.16785229831738
0
LWPOLYLINE
5
192
100
AcDbEntity
8
INTERIOR_PROFILES
100
AcDbPolyline
90
6
70
1
43
0.0
10
129.419602541421
20
155.59549951209576
10
126.43528309262619
20
153.83656874951723
10
126.46640209211975
20
150.37260691256367
10
129.48184054040811
20
148.6675758381887
10
132.46615998920288
20
150.4265066007672
10
132.43504098970934
20
153.89046843772076
0
LWPOLYLINE
5
193
100
AcDbEntity
8
INTERIOR_PROFILES
100
AcDbPolyline
90
6
70
1
43
0.0
10
125.33020955622712
20
128.42220423670159
10
122.31477110793877
20
130.12723531107656
10
119.33045165914399
20
128.36830454849803
10
119.36157065863753
20
124.90434271154449
10
122.37700910692588
20
123.19931163716952
10
125.36132855572066
20
124.95824239974806
0
LWPOLYLINE
5
194
100
AcDbEntity
8
INTERIOR_PROFILES
100
AcDbPolyline
90
4
70
1
43
0.0
10
60.145862424450272
20
141.850766232745
10
62.859355905475752
20
143.45007463110014
10
62.828236905982209
20
146.91403646805367
10
60.145862424450286
20
148.43074189001928
0
LWPOLYLINE
5
195
100
AcDbEntity
8
INTERIOR_PROFILES
100
AcDbPolyline
90
6
70
1
43
0.0
10
101.20013158143138
20
105.68785911656701
10
104.21557002971973
20
103.982828042192
10
107.19988947851451
20
105.74175880477054
10
107.16877047902095
20
109.20572064172407
10
104.15333203073263
20
110.91075171609904
10
101.16901258193781
20
109.15182095352051
0
LWPOLYLINE
5
196
100
AcDbEntity
8
INTERIOR_PROFILES
100
AcDbPolyline
90
6
70
1
43
0.0
10
85.763686957240424
20
117.09665492544751
10
82.779367508445603
20
115.33772416286897
10
82.810486507939174
20
111.87376232591544
10
85.82592495622751
20
110.16873125154042
10
88.810244405022303
20
111.92766201411897
10
88.77912540552876
20
115.3916238510725
0
LWPOLYLINE
5
197
100
AcDbEntity
8
INTERIOR_PROFILES
100
AcDbPolyline
90
6
70
1
43
0.0
10
63.650471669792559
20
129.60021613753082
10
60.666152220997773
20
127.84128537495228
10
60.697271220491317
20
124.37732353799873
10
63.712709668779652
20
122.67229246362375
10
66.697029117574431
20
124.43122322620228
10
66.665910118080916
20
127.89518506315581
0
LWPOLYLINE
5
198
100
AcDbEntity
8
INTERIOR_PROFILES
100
AcDbPolyline
90
4
70
1
43
0.0
10
155.28167371823235
20
98.483849427564081
10
152.61437758845881
20
96.911769328210084
10
152.64549658795235
20
93.44780749125654
10
155.28167371823235
20
91.957223617048967
0
LWPOLYLINE
5
199
100
AcDbEntity
8
INTERIOR_PROFILES
100
AcDbPolyline
90
6
70
1
43
0.0
10
103.92512603444658
20
136.31313852042501
10
100.94080658565176
20
134.55420775784648
10
100.97192558514533
20
131.09024592089295
10
103.98736403343366
20
129.38521484651795
10
106.97168348222846
20
131.14414560909648
10
106.94056448273489
20
134.60810744605001
0
LWPOLYLINE
5
200
100
AcDbEntity
8
INTERIOR_PROFILES
100
AcDbPolyline
90
6
70
1
43
0.0
10
115.15807467530064
20
110.43224083831331
10
118.14239412409542
20
112.19117160089183
10
118.11127512460187
20
115.65513343784538
10
115.09583667631354
20
117.36016451222039
10
112.11151722751872
20
115.60123374964185
10
112.14263622701228
20
112.13727191268831
0
LWPOLYLINE
5
201
100
AcDbEntity
8
INTERIOR_PROFILES
100
AcDbPolyline
90
6
70
1
43
0.0
10
92.930756389709742
20
135.6369954525596
10
95.915075838504549
20
137.39592621513816
10
95.883956839010978
20
140.85988805209166
10
92.868518390722627
20
142.56491912646666
10
89.884198941927849
20
140.80598836388813
10
89.915317941421392
20
137.3420265269346
0
LWPOLYLINE
5
202
100
AcDbEntity
8
INTERIOR_PROFILES
100
AcDbPolyline
90
4
70
1
43
0.0
10
60.077956777559308
20
167.34763260624612
10
62.631149909189702
20
168.85246143542611
10
62.600030909696152
20
172.31642327237964
10
60.077956777559308
20
173.74248944514849
0
LWPOLYLINE
5
203
100
AcDbEntity
8
INTERIOR_PROFILES
100
AcDbPolyline
90
6
70
1
43
0.0
10
73.77074155156312
20
153.36344926417499
10
70.755303103274784
20
155.06848033854999
10
67.770983654479991
20
153.30954957597146
10
67.802102653973549
20
149.84558773901793
10
70.817541102261885
20
148.14055666464293
10
73.801860551056677
20
149.89948742722146
0
LWPOLYLINE
5
204
100
AcDbEntity
8
INTERIOR_PROFILES
100
AcDbPolyline
90
7
70
1
43
0.0
10
121.26433034784239
20
172.8434424459254
10
119.04305936143147
20
174.09942432762756
10
117.4870050375637
20
174.0994243276275
10
115.26457245075925
20
172.78954275772182
10
115.29569145025279
20
169.32558092076832
10
118.31112989854114
20
167.62054984639332
10
121.29544934733593
20
169.37948060897185
0
LWPOLYLINE
5
205
100
AcDbEntity
8
INTERIOR_PROFILES
100
AcDbPolyline
90
6
70
1
43
0.0
10
82.437058514016542
20
153.44130436935788
10
82.468177513510085
20
149.97734253240435
10
85.483615961798435
20
148.27231145802938
10
88.467935410593242
20
150.03124222060791
10
88.43681641109967
20
153.49520405756144
10
85.42137796281132
20
155.20023513193644
0
LWPOLYLINE
5
206
100
AcDbEntity
8
INTERIOR_PROFILES
100
AcDbPolyline
90
6
70
1
43
0.0
10
133.31951375250679
20
129.64872443329082
10
136.30383320130159
20
131.40765519586935
10
136.27271420180801
20
134.87161703282288
10
133.25727575351968
20
136.57664810719791
10
130.27295630472486
20
134.81771734461935
10
130.30407530421843
20
131.35375550766582
0
LWPOLYLINE
5
207
100
AcDbEntity
8
INTERIOR_PROFILES
100
AcDbPolyline
90
6
70
1
43
0.0
10
140.3621071870019
20
162.04491230821705
10
137.3777877382071
20
160.28598154563852
10
137.40890673770065
20
156.82201970868499
10
140.42434518598898
20
155.11698863431002
10
143.4086646347838
20
156.87591939688855
10
143.37754563529023
20
160.33988123384205
0
LWPOLYLINE
5
208
100
AcDbEntity
8
INTERIOR_PROFILES
100
AcDbPolyline
90
6
70
1
43
0.0
10
134.02764551817407
20
125.03609750493095
10
137.04308396646243
20
123.33106643055594
10
140.02740341525723
20
125.08999719313448
10
139.99628441576365
20
128.55395903008801
10
136.98084596747532
20
130.25899010446301
10
133.99652651868053
20
128.50005934188448
0
LWPOLYLINE
5
209
100
AcDbEntity
8
INTERIOR_PROFILES
100
AcDbPolyline
90
6
70
1
43
0.0
10
82.551161512159581
20
140.74011096719491
10
82.58228051165311
20
137.27614913024138
10
85.59771895994146
20
135.57111805586638
10
88.582038408736253
20
137.33004881844491
10
88.550919409242695
20
140.79401065539847
10
85.535480960954374
20
142.49904172977347
0
LWPOLYLINE
5
210
100
AcDbEntity
8
INTERIOR_PROFILES
100
AcDbPolyline
90
6
70
1
43
0.0
10
132.32093799156632
20
166.59166183988373
10
129.30549954327796
20
168.29669291425873
10
126.32118009448318
20
166.5377621516802
10
126.35229909397673
20
163.07380031472664
10
129.36773754226508
20
161.36876924035164
10
132.35205699105984
20
163.12770000293023
0
LWPOLYLINE
5
211
100
AcDbEntity
8
INTERIOR_PROFILES
100
AcDbPolyline
90
7
70
1
43
0.0
10
143.29456163664076
20
169.57711279905152
10
143.26344263714722
20
173.04107463600502
10
141.39169472602919
20
174.09942432762759
10
139.15080134905378
20
174.09942432762759
10
137.26368474006409
20
172.98717494780149
10
137.29480373955764
20
169.52321311084799
10
140.31024218784597
20
167.81818203647299
0
LWPOLYLINE
5
212
100
AcDbEntity
8
INTERIOR_PROFILES
100
AcDbPolyline
90
6
70
1
43
0.0
10
126.58050509026279
20
137.6714135104007
10
129.59594353855113
20
135.9663824360257
10
132.58026298734592
20
137.72531319860423
10
132.54914398785235
20
141.18927503555778
10
129.53370553956401
20
142.89430610993276
10
126.54938609076922
20
141.13537534735423
0
LWPOLYLINE
5
213
100
AcDbEntity
8
INTERIOR_PROFILES
100
AcDbPolyline
90
6
70
1
43
0.0
10
70.869406101417795
20
142.36728693638702
10
67.885086652623016
20
140.60835617380849
10
67.916205652116574
20
137.14439433685493
10
70.931644100404895
20
135.43936326247996
10
73.915963549199688
20
137.19829402505849
10
73.884844549706145
20
140.66225586201202
0
LWPOLYLINE
5
214
100
AcDbEntity
8
INTERIOR_PROFILES
100
AcDbPolyline
90
6
70
1
43
0.0
10
129.08489876967633
20
118.64058439701317
10
129.05377977018279
20
122.10454623396669
10
126.03834132189442
20
123.80957730834169
10
123.05402187309964
20
122.05064654576316
10
123.08514087259319
20
118.58668470880963
10
126.10057932088154
20
116.88165363443463
0
LWPOLYLINE
5
215
100
AcDbEntity
8
INTERIOR_PROFILES
100
AcDbPolyline
90
6
70
1
43
0.0
10
114.81576568087155
20
148.53582104480225
10
117.80008512966633
20
150.29475180738078
10
117.76896613017279
20
153.75871364433431
10
114.75352768188444
20
155.46374471870931
10
111.76920823308964
20
153.70481395613078
10
111.8003272325832
20
150.24085211917725
0
LWPOLYLINE
5
216
100
AcDbEntity
8
INTERIOR_PROFILES
100
AcDbPolyline
90
6
70
1
43
0.0
10
125.10200355994104
20
153.82459104102753
10
122.08656511165272
20
155.52962211540253
10
119.10224566285792
20
153.770691352824
10
119.13336466235148
20
150.30672951587047
10
122.14880311063982
20
148.60169844149544
10
125.13312255943461
20
150.360629204074
0
LWPOLYLINE
5
217
100
AcDbEntity
8
INTERIOR_PROFILES
100
AcDbPolyline
90
6
70
1
43
0.0
10
155.28167371823218
20
168.12991127667436
10
155.28167371823218
20
174.09942432762762
10
153.59333222338049
20
174.09942432762762
10
151.92975959960063
20
173.11892974118794
10
151.96087859909417
20
169.65496790423441
10
154.97631704738251
20
167.94993682985938
0
LWPOLYLINE
5
218
100
AcDbEntity
8
INTERIOR_PROFILES
100
AcDbPolyline
90
6
70
1
43
0.0
10
81.331984977617424
20
128.02693985654227
10
78.316546529329102
20
129.73197093091727
10
75.332227080534324
20
127.97304016833871
10
75.363346080027867
20
124.50907833138518
10
78.378784528316231
20
122.80404725701018
10
81.363103977110995
20
124.56297801958871
0
LWPOLYLINE
5
219
100
AcDbEntity
8
INTERIOR_PROFILES
100
AcDbPolyline
90
6
70
1
43
0.0
10
70.420599331530099
20
118.1135652234674
10
70.389480332036541
20
121.57752706042092
10
67.374041883748191
20
123.28255813479593
10
64.389722434953427
20
121.52362737221739
10
64.42084143444697
20
118.05966553526386
10
67.436279882735306
20
116.35463446088889
0
LWPOLYLINE
5
220
100
AcDbEntity
8
INTERIOR_PROFILES
100
AcDbPolyline
90
6
70
1
43
0.0
10
151.41871483072583
20
155.7931317021754
10
148.43439538193104
20
154.03420093959687
10
148.46551438142458
20
150.57023910264334
10
151.48095282971295
20
148.86520802826834
10
154.46527227850771
20
150.62413879084687
10
154.43415327901417
20
154.0881006278004
0
LWPOLYLINE
5
221
100
AcDbEntity
8
INTERIOR_PROFILES
100
AcDbPolyline
90
6
70
1
43
0.0
10
70.641200105131759
20
167.76967374071296
10
67.656880656336952
20
166.01074297813443
10
67.687999655830509
20
162.5467811411809
10
70.70343810411886
20
160.8417500668059
10
73.687757552913652
20
162.60068082938443
10
73.65663855342008
20
166.06464266633796
0
LWPOLYLINE
5
222
100
AcDbEntity
8
INTERIOR_PROFILES
100
AcDbPolyline
90
6
70
1
43
0.0
10
115.63800044468188
20
131.22200071427937
10
118.65343889297023
20
129.5169696399044
10
121.63775834176502
20
131.2759004024829
10
121.60663934227146
20
134.73986223943646
10
118.59120089398311
20
136.44489331381146
10
115.60688144518832
20
134.6859625512329
0
LWPOLYLINE
5
223
100
AcDbEntity
8
INTERIOR_PROFILES
100
AcDbPolyline
90
6
70
1
43
0.0
10
93.752991153520071
20
118.32317512203673
10
96.768429601808421
20
116.61814404766176
10
99.7527490506032
20
118.37707481024029
10
99.721630051109642
20
121.84103664719382
10
96.70619160282132
20
123.54606772156882
10
93.721872154026528
20
121.78713695899027
0
LWPOLYLINE
5
224
100
AcDbEntity
8
INTERIOR_PROFILES
100
AcDbPolyline
90
6
70
1
43
0.0
10
104.69549579910097
20
124.77258791815807
10
107.71093424738933
20
123.06755684378308
10
110.69525369618411
20
124.8264876063616
10
110.66413469669055
20
128.29044944331514
10
107.64869624840223
20
129.99548051769014
10
104.66437679960741
20
128.23654975511158
0
LWPOLYLINE
5
225
100
AcDbEntity
8
INTERIOR_PROFILES
100
AcDbPolyline
90
6
70
1
43
0.0
10
92.274489623198349
20
134.47635265266359
10
89.259051174909999
20
136.18138372703856
10
86.27473172611522
20
134.42245296446004
10
86.305850725608764
20
130.95849112750648
10
89.321289173897114
20
129.2534600531315
10
92.305608622691892
20
131.01239081571003
0
LWPOLYLINE
5
226
100
AcDbEntity
8
INTERIOR_PROFILES
100
AcDbPolyline
90
6
70
1
43
0.0
10
147.92335061305624
20
136.70840290058433
10
144.93903116426142
20
134.94947213800577
10
144.97015016375499
20
131.48551030105224
10
147.98558861204333
20
129.78047922667727
10
150.96990806083812
20
131.5394099892558
10
150.93878906134455
20
135.00337182620933
0
LWPOLYLINE
5
227
100
AcDbEntity
8
INTERIOR_PROFILES
100
AcDbPolyline
90
6
70
1
43
0.0
10
89.770095943784796
20
153.5071817660511
10
89.801214943278353
20
150.04321992909757
10
92.816653391566717
20
148.33818885472257
10
95.800972840361496
20
150.09711961730113
10
95.769853840867952
20
153.56108145425463
10
92.754415392579617
20
155.26611252862966
0
LWPOLYLINE
5
228
100
AcDbEntity
8
INTERIOR_PROFILES
100
AcDbPolyline
90
7
70
1
43
0.0
10
103.64505503900459
20
167.4887950530069
10
106.62937448779937
20
169.24772581558543
10
106.59825548830582
20
172.71168765253893
10
104.14396911836634
20
174.09942432762747
10
103.044474163237
20
174.09942432762747
10
100.5984975912227
20
172.6577879643354
10
100.62961659071621
20
169.1938261273819
0
LWPOLYLINE
5
229
100
AcDbEntity
8
INTERIOR_PROFILES
100
AcDbPolyline
90
6
70
1
43
0.0
10
136.75263997118927
20
155.66137690878895
10
133.76832052239448
20
153.90244614621042
10
133.79943952188802
20
150.43848430925689
10
136.81487797017638
20
148.73345323488189
10
139.79919741897118
20
150.49238399746042
10
139.7680784194776
20
153.95634583441398
0
LWPOLYLINE
5
230
100
AcDbEntity
8
INTERIOR_PROFILES
100
AcDbPolyline
90
6
70
1
43
0.0
10
141.21546095030578
20
141.26713014074068
10
141.24657994979933
20
137.80316830378712
10
144.26201839808766
20
136.09813722941215
10
147.24633784688248
20
137.85706799199068
10
147.21521884738891
20
141.32102982894421
10
144.19978039910058
20
143.02606090331921
0
LWPOLYLINE
5
231
100
AcDbEntity
8
INTERIOR_PROFILES
100
AcDbPolyline
90
6
70
1
43
0.0
10
88.353832412450188
20
162.73243562277088
10
88.322713412956645
20
166.19639745972444
10
85.307274964668309
20
167.90142853409941
10
82.322955515873488
20
166.14249777152085
10
82.354074515367046
20
162.67853593456735
10
85.36951296365541
20
160.97350486019235
0
LWPOLYLINE
5
232
100
AcDbEntity
8
INTERIOR_PROFILES
100
AcDbPolyline
90
6
70
1
43
0.0
10
103.01990727198674
20
162.8641904161573
10
102.9887882724932
20
166.32815225311083
10
99.97334982420486
20
168.03318332748586
10
96.989030375410039
20
166.27425256490733
10
97.02014937490361
20
162.81029072795377
10
100.03558782319196
20
161.10525965357877
0
LWPOLYLINE
5
233
100
AcDbEntity
8
INTERIOR_PROFILES
100
AcDbPolyline
90
6
70
1
43
0.0
10
100.0874528223479
20
155.33198992532289
10
97.103133373553092
20
153.57305916274436
10
97.134252373046635
20
150.1090973257908
10
100.14969082133501
20
148.4040662514158
10
103.13401027012979
20
150.16299701399433
10
103.10289127063623
20
153.62695885094786
0
LWPOLYLINE
5
234
100
AcDbEntity
8
INTERIOR_PROFILES
100
AcDbPolyline
90
4
70
1
43
0.0
10
62.745252907332727
20
156.15126803326314
10
62.714133907839184
20
159.61522987021664
10
60.077956777559351
20
161.10581374442415
10
60.077956777559351
20
154.57918793390922
0
LWPOLYLINE
5
235
100
AcDbEntity
8
INTERIOR_PROFILES
100
AcDbPolyline
90
4
70
1
43
0.0
10
60.145862424450257
20
135.79406618929494
10
60.145862424450257
20
129.08232156040808
10
62.973458903618784
20
130.74888122893717
10
62.942339904125234
20
134.2128430658907
0
LWPOLYLINE
5
236
100
AcDbEntity
8
INTERIOR_PROFILES
100
AcDbPolyline
90
6
70
1
43
0.0
10
74.427008318074513
20
154.524092064071
10
77.411327766869292
20
156.28302282664956
10
77.380208767375734
20
159.74698466360309
10
74.364770319087398
20
161.45201573797809
10
71.38045087029262
20
159.69308497539956
10
71.411569869786163
20
156.22912313844603
0
LWPOLYLINE
5
237
100
AcDbEntity
8
INTERIOR_PROFILES
100
AcDbPolyline
90
6
70
1
43
0.0
10
111.14406046607181
20
149.08020931928121
10
108.15974101727703
20
147.32127855670268
10
108.19086001677057
20
143.85731671974912
10
111.20629846505892
20
142.15228564537415
10
114.19061791385371
20
143.91121640795268
10
114.15949891436014
20
147.37517824490621
0
LWPOLYLINE
5
238
100
AcDbEntity
8
INTERIOR_PROFILES
100
AcDbPolyline
90
6
70
1
43
0.0
10
147.87148561390029
20
142.48167262884024
10
150.85580506269508
20
144.24060339141877
10
150.82468606320154
20
147.7045652283723
10
147.8092476149132
20
149.4095963027473
10
144.82492816611841
20
147.65066554016875
10
144.85604716561195
20
144.18670370321524
0
LWPOLYLINE
5
239
100
AcDbEntity
8
INTERIOR_PROFILES
100
AcDbPolyline
90
6
70
1
43
0.0
10
148.320292383788
20
166.73539434175984
10
148.35141138328157
20
163.27143250480631
10
151.36684983156988
20
161.56640143043131
10
154.35116928036467
20
163.32533219300984
10
154.32005028087113
20
166.7892940299634
10
151.30461183258279
20
168.4943251043384
0
LWPOLYLINE
5
240
100
AcDbEntity
8
INTERIOR_PROFILES
100
AcDbPolyline
90
6
70
1
43
0.0
10
97.445442367982167
20
115.46947895625539
10
97.476561367475725
20
112.00551711930186
10
100.49199981576407
20
110.30048604492686
10
103.47631926455887
20
112.05941680750541
10
103.44520026506531
20
115.52337864445894
10
100.42976181677699
20
117.22840971883393
0
LWPOLYLINE
5
241
100
AcDbEntity
8
INTERIOR_PROFILES
100
AcDbPolyline
90
6
70
1
43
0.0
10
144.54208939352966
20
104.92248069683029
10
141.55776994473487
20
103.16354993425176
10
141.58888894422842
20
99.699588097298204
10
144.60432739251675
20
97.994557022923217
10
147.58864684131154
20
99.753487785501733
10
147.557527841818
20
103.21744962245529
0
LWPOLYLINE
5
242
100
AcDbEntity
8
INTERIOR_PROFILES
100
AcDbPolyline
90
6
70
1
43
0.0
10
145.16723716054747
20
109.54708533367985
10
145.19835616004104
20
106.0831234967263
10
148.21379460832941
20
104.37809242235132
10
151.1981140571242
20
106.13702318492986
10
151.16699505763063
20
109.60098502188337
10
148.15155660934229
20
111.30601609625839
0
LWPOLYLINE
5
243
100
AcDbEntity
8
INTERIOR_PROFILES
100
AcDbPolyline
90
6
70
1
43
0.0
10
121.8348453385575
20
109.33747543511049
10
118.81940689026918
20
111.04250650948551
10
115.83508744147437
20
109.28357574690696
10
115.86620644096794
20
105.81961390995343
10
118.88164488925628
20
104.11458283557842
10
121.86596433805107
20
105.87351359815698
0
LWPOLYLINE
5
244
100
AcDbEntity
8
INTERIOR_PROFILES
100
AcDbPolyline
90
6
70
1
43
0.0
10
132.77734998413843
20
115.78688823123181
10
129.76191153585009
20
117.49191930560681
10
126.77759208705527
20
115.73298854302827
10
126.80871108654884
20
112.26902670607474
10
129.8241495348372
20
110.56399563169975
10
132.80846898363197
20
112.32292639427828
0
LWPOLYLINE
5
245
100
AcDbEntity
8
INTERIOR_PROFILES
100
AcDbPolyline
90
6
70
1
43
0.0
10
130.61526529915395
20
96.714137138130411
10
130.64638429864749
20
93.250175301176895
10
133.66182274693585
20
91.545144226801909
10
136.64614219573065
20
93.304074989380439
10
136.6150231962371
20
96.768036826333983
10
133.59958474794877
20
98.473067900708955
0
LWPOLYLINE
5
246
100
AcDbEntity
8
INTERIOR_PROFILES
100
AcDbPolyline
90
6
70
1
43
0.0
10
86.502937722401271
20
109.02006616013409
10
86.534056721894814
20
105.55610432318055
10
89.549495170183178
20
103.85107324880556
10
92.533814618977971
20
105.61000401138408
10
92.502695619484413
20
109.07396584833762
10
89.487257171196063
20
110.77899692271262
0
LWPOLYLINE
5
247
100
AcDbEntity
8
INTERIOR_PROFILES
100
AcDbPolyline
90
6
70
1
43
0.0
10
74.113050545992209
20
115.25986905768606
10
71.097612097703873
20
116.96490013206105
10
68.113292648909081
20
115.20596936948252
10
68.144411648402624
20
111.74200753252897
10
71.159850096690974
20
110.036976458154
10
74.144169545485738
20
111.79590722073252
0
LWPOLYLINE
5
248
100
AcDbEntity
8
INTERIOR_PROFILES
100
AcDbPolyline
90
4
70
1
43
0.0
10
152.38617159217276
20
122.31415613253603
10
152.4172905916663
20
118.8501942955825
10
155.28167371823233
20
117.23057501849772
10
155.28167371823227
20
124.02073877223785
0
LWPOLYLINE
5
249
100
AcDbEntity
8
INTERIOR_PROFILES
100
AcDbPolyline
90
6
70
1
43
0.0
10
143.49164863343327
20
147.63868783167908
10
140.47621018514494
20
149.34371890605408
10
137.49189073635011
20
147.58478814347555
10
137.52300973584369
20
144.12082630652202
10
140.53844818413205
20
142.41579523214702
10
143.52276763292681
20
144.17472599472558
0
LWPOLYLINE
5
250
100
AcDbEntity
8
INTERIOR_PROFILES
100
AcDbPolyline
90
6
70
1
43
0.0
10
115.40979444839581
20
156.62438751860532
10
118.42523289668418
20
154.91935644423035
10
121.40955234547896
20
156.67828720680887
10
121.37843334598541
20
160.14224904376243
10
118.36299489769706
20
161.84728011813741
10
115.37867544890227
20
160.08834935555885
0
LWPOLYLINE
5
251
100
AcDbEntity
8
INTERIOR_PROFILES
100
AcDbPolyline
90
6
70
1
43
0.0
10
99.866852048746253
20
105.67588140807732
10
99.835733049252696
20
109.13984324503085
10
96.82029460096436
20
110.84487431940585
10
93.835975152169553
20
109.0859435568273
10
93.867094151663096
20
105.62198171987377
10
96.882532599951446
20
103.91695064549877
0
LWPOLYLINE
5
252
100
AcDbEntity
8
INTERIOR_PROFILES
100
AcDbPolyline
90
6
70
1
43
0.0
10
132.69436598548896
20
125.02411979644125
10
132.66324698599539
20
128.48808163339481
10
129.64780853770705
20
130.19311270776979
10
126.66348908891224
20
128.43418194519126
10
126.69460808840581
20
124.97022010823771
10
129.71004653669414
20
123.26518903386273
0
LWPOLYLINE
5
253
100
AcDbEntity
8
INTERIOR_PROFILES
100
AcDbPolyline
90
6
70
1
43
0.0
10
99.524543054317149
20
143.77946161456623
10
99.493424054823606
20
147.24342345151976
10
96.47798560653527
20
148.94845452589476
10
93.493666157740464
20
147.18952376331623
10
93.524785157234021
20
143.7255619263627
10
96.540223605522357
20
142.0205308519877
0
LWPOLYLINE
5
254
100
AcDbEntity
8
INTERIOR_PROFILES
100
AcDbPolyline
90
7
70
1
43
0.0
10
124.70827047472704
20
174.0994243276275
10
122.59760988052753
20
172.85542015441507
10
122.62872888002107
20
169.39145831746151
10
125.64416732830942
20
167.68642724308651
10
128.6284867771042
20
169.4453580056651
10
128.59736777761066
20
172.9093198426186
10
126.49260448296405
20
174.09942432762756
0
LWPOLYLINE
5
255
100
AcDbEntity
8
INTERIOR_PROFILES
100
AcDbPolyline
90
6
70
1
43
0.0
10
63.964429441874842
20
168.86443914391577
10
66.979867890163192
20
167.15940806954077
10
69.96418733895797
20
168.9183388321193
10
69.933068339464427
20
172.38230066907283
10
66.917629891176077
20
174.08733174344786
10
63.933310442381313
20
172.32840098086933
0
LWPOLYLINE
5
256
100
AcDbEntity
8
INTERIOR_PROFILES
100
AcDbPolyline
90
6
70
1
43
0.0
10
81.103778981331374
20
153.42932666086821
10
78.088340533043052
20
155.13435773524321
10
75.104021084248245
20
153.37542697266468
10
75.135140083741817
20
149.91146513571113
10
78.150578532030153
20
148.20643406133613
10
81.134897980824945
20
149.96536482391468
0
LWPOLYLINE
5
257
100
AcDbEntity
8
INTERIOR_PROFILES
100
AcDbPolyline
90
6
70
1
43
0.0
10
81.874148745985806
20
141.88877605860125
10
84.858468194780613
20
143.64770682117981
10
84.82734919528707
20
147.11166865813334
10
81.811910746998706
20
148.81669973250834
10
78.827591298203913
20
147.05776896992978
10
78.858710297697471
20
143.59380713297625
0
LWPOLYLINE
5
258
100
AcDbEntity
8
INTERIOR_PROFILES
100
AcDbPolyline
90
6
70
1
43
0.0
10
155.14228504468147
20
149.47547369944053
10
152.15796559588671
20
147.716542936862
10
152.18908459538025
20
144.25258109990847
10
155.20452304366859
20
142.54755002553344
10
155.28167371823224
20
142.5930219320006
10
155.28167371823224
20
149.39665862034155
0
LWPOLYLINE
5
259
100
AcDbEntity
8
INTERIOR_PROFILES
100
AcDbPolyline
90
7
70
1
43
0.0
10
84.630262198494549
20
169.05009362550575
10
84.599143199001006
20
172.51405546245928
10
81.795333753768631
20
174.09942432762745
10
81.380677851746952
20
174.09942432762745
10
78.599385301917849
20
172.46015577425572
10
78.630504301411406
20
168.99619393730219
10
81.645942749699742
20
167.29116286292722
0
LWPOLYLINE
5
260
100
AcDbEntity
8
INTERIOR_PROFILES
100
AcDbPolyline
90
6
70
1
43
0.0
10
96.592088604678295
20
136.24726112373179
10
93.607769155883489
20
134.48833036115326
10
93.638888155377046
20
131.02436852419973
10
96.654326603665396
20
129.31933744982473
10
99.638646052460189
20
131.07826821240326
10
99.607527052966631
20
134.54223004935679
0
LWPOLYLINE
5
261
100
AcDbEntity
8
INTERIOR_PROFILES
100
AcDbPolyline
90
7
70
1
43
0.0
10
148.84123984756175
20
174.09942432762759
10
146.37206678621712
20
174.09942432762759
10
144.59672216983233
20
173.05305234449469
10
144.6278411693259
20
169.58909050754119
10
147.64327961761427
20
167.88405943316619
10
150.62759906640903
20
169.64299019574472
10
150.59648006691549
20
173.10695203269827
0
LWPOLYLINE
5
262
100
AcDbEntity
8
INTERIOR_PROFILES
100
AcDbPolyline
90
6
70
1
43
0.0
10
107.08578648037148
20
118.44295220693351
10
107.05466748087794
20
121.90691404388704
10
104.03922903258959
20
123.61194511826201
10
101.0549095837948
20
121.85301435568348
10
101.08602858328835
20
118.38905251872995
10
104.1014670315767
20
116.68402144435497
0
LWPOLYLINE
5
263
100
AcDbEntity
8
INTERIOR_PROFILES
100
AcDbPolyline
90
6
70
1
43
0.0
10
60.469065224205266
20
149.77971034232471
10
63.484503672493616
20
148.0746792679497
10
66.468823121288395
20
149.83361003052823
10
66.437704121794852
20
153.29757186748179
10
63.422265673506502
20
155.00260294185676
10
60.437946224711716
20
153.24367217927824
0
LWPOLYLINE
5
264
100
AcDbEntity
8
INTERIOR_PROFILES
100
AcDbPolyline
90
6
70
1
43
0.0
10
125.4754315538637
20
112.25704899758506
10
125.44431255437016
20
115.7210108345386
10
122.42887410608179
20
117.42604190891359
10
119.44455465728701
20
115.66711114633506
10
119.47567365678056
20
112.20314930938152
10
122.49111210506891
20
110.49811823500653
0
LWPOLYLINE
5
265
100
AcDbEntity
8
INTERIOR_PROFILES
100
AcDbPolyline
90
6
70
1
43
0.0
10
154.8075812729368
20
112.52055858435796
10
154.77646227344326
20
115.98452042131149
10
151.76102382515492
20
117.68955149568647
10
148.7767043763601
20
115.93062073310793
10
148.80782337585367
20
112.4666588961544
10
151.82326182414201
20
110.76162782177943
0
LWPOLYLINE
5
266
100
AcDbEntity
8
INTERIOR_PROFILES
100
AcDbPolyline
90
4
70
1
43
0.0
10
250.44461756422123
20
17.185836000210308
10
250.44461756421975
20
225.18583600021026
10
180.64461756421977
20
225.1858360002096
10
180.64461756422128
20
17.185836000209704
0
LWPOLYLINE
5
267
100
AcDbEntity
8
INTERIOR_PROFILES
100
AcDbPolyline
90
6
70
1
43
0.0
10
90.143523937707471
20
111.93963972260863
10
93.158962385995792
20
110.23460864823365
10
96.143281834790599
20
111.99353941081219
10
96.112162835297028
20
115.45750124776572
10
93.096724387008692
20
117.16253232214072
10
90.112404938213899
20
115.40360155956219
0
LWPOLYLINE
5
268
100
AcDbEntity
8
INTERIOR_PROFILES
100
AcDbPolyline
90
6
70
1
43
0.0
10
144.08567740095754
20
155.72725430548221
10
141.10135795216274
20
153.96832354290365
10
141.13247695165632
20
150.50436170595012
10
144.14791539994465
20
148.79933063157512
10
147.13223484873944
20
150.55826139415365
10
147.1011158492459
20
154.02222323110718
0
LWPOLYLINE
5
269
100
AcDbEntity
8
INTERIOR_PROFILES
100
AcDbPolyline
90
7
70
1
43
0.0
10
85.932422731686131
20
172.52603317094895
10
85.963541731179674
20
169.06207133399545
10
88.978980179468024
20
167.35704025962042
10
91.963299628262831
20
169.11597102219898
10
91.93218062876926
20
172.57993285915251
10
89.244878875301197
20
174.09942432762745
10
88.601943288910292
20
174.09942432762745
0
LWPOLYLINE
5
270
100
AcDbEntity
8
INTERIOR_PROFILES
100
AcDbPolyline
90
6
70
1
43
0.0
10
106.71235848644884
20
160.01049425037596
10
103.69692003816053
20
161.71552532475096
10
100.71260058936571
20
159.95659456217243
10
100.74371958885926
20
156.4926327252189
10
103.75915803714761
20
154.7876016508439
10
106.74347748594241
20
156.54653241342243
0
LWPOLYLINE
5
271
100
AcDbEntity
8
INTERIOR_PROFILES
100
AcDbPolyline
90
7
70
1
43
0.0
10
135.93040520737893
20
172.9751972393118
10
133.94214960449662
20
174.09942432762756
10
131.92953591189041
20
174.09942432762756
10
129.9306473102958
20
172.9212975511083
10
129.96176630978934
20
169.45733571415474
10
132.97720475807768
20
167.75230463977977
10
135.9615242068725
20
169.5112354023583
0
LWPOLYLINE
5
272
100
AcDbEntity
8
INTERIOR_PROFILES
100
AcDbPolyline
90
6
70
1
43
0.0
10
63.826812666922699
20
109.97109906146076
10
66.811132115717484
20
111.73002982403929
10
66.780013116223941
20
115.19399166099284
10
63.764574667935591
20
116.89902273536785
10
60.780255219140798
20
115.14009197278931
10
60.811374218634349
20
111.67613013583576
0
LWPOLYLINE
5
273
100
AcDbEntity
8
INTERIOR_PROFILES
100
AcDbPolyline
90
5
70
1
43
0.0
10
152.27206859402972
20
135.01534953469903
10
152.30318759352326
20
131.55138769774547
10
155.28167371823227
20
129.86725071922208
10
155.28167371823227
20
136.75998291961719
10
155.25638804282451
20
136.77428029727756
0
LWPOLYLINE
5
274
100
AcDbEntity
8
INTERIOR_PROFILES
100
AcDbPolyline
90
4
70
1
43
0.0
10
291.9353660374602
20
112.66260492997557
10
291.9353660374602
20
123.06260492997555
10
281.53536603746016
20
123.06260492997552
10
281.53536603746022
20
112.66260492997553
0
LWPOLYLINE
5
275
100
AcDbEntity
8
INTERIOR_PROFILES
100
AcDbPolyline
90
4
70
1
43
0.0
10
281.53536603746011
20
137.26260492997523
10
281.53536603746011
20
126.86260492997536
10
291.93536603746008
20
126.8626049299754
10
291.93536603746008
20
137.26260492997528
0
LWPOLYLINE
5
276
100
AcDbEntity
8
INTERIOR_PROFILES
100
AcDbPolyline
90
6
70
1
43
0.0
10
110.32182570226148
20
166.39402964980405
10
107.30638725397313
20
168.09906072417905
10
104.32206780517834
20
166.34012996160052
10
104.35318680467189
20
162.87616812464699
10
107.36862525296024
20
161.17113705027202
10
110.35294470175502
20
162.93006781285055
0
LWPOLYLINE
5
277
100
AcDbEntity
8
INTERIOR_PROFILES
100
AcDbPolyline
90
6
70
1
43
0.0
10
110.55003169854754
20
140.99164284547811
10
107.53459325025918
20
142.69667391985311
10
104.5502738014644
20
140.93774315727458
10
104.58139280095794
20
137.47378132032105
10
107.59683124924629
20
135.76875024594602
10
110.5811506980411
20
137.52768100852458
0
LWPOLYLINE
5
278
100
AcDbEntity
8
INTERIOR_PROFILES
100
AcDbPolyline
90
6
70
1
43
0.0
10
103.33109726692228
20
128.22457204662192
10
100.31565881863395
20
129.92960312099689
10
97.331339369839156
20
128.17067235841836
10
97.3624583693327
20
124.70671052146484
10
100.37789681762106
20
123.00167944708986
10
103.36221626641586
20
124.76061020966839
0
LWPOLYLINE
5
279
100
AcDbEntity
8
INTERIOR_PROFILES
100
AcDbPolyline
90
6
70
1
43
0.0
10
74.769317312503574
20
116.42051185758208
10
77.753636761298381
20
118.17944262016063
10
77.722517761804824
20
121.64340445711416
10
74.707079313516473
20
123.34843553148914
10
71.722759864721695
20
121.58950476891061
10
71.753878864215238
20
118.12554293195709
0
LWPOLYLINE
5
280
100
AcDbEntity
8
INTERIOR_PROFILES
100
AcDbPolyline
90
6
70
1
43
0.0
10
122.82581587681356
20
147.4530333500891
10
122.85693487630712
20
143.98907151313557
10
125.87237332459549
20
142.28404043876057
10
128.85669277339025
20
144.04297120133913
10
128.82557377389671
20
147.50693303829266
10
125.81013532560837
20
149.21196411266766
0
CIRCLE
5
281
100
AcDbEntity
8
INTERIOR_PROFILES
100
AcDbCircle
10
-257.83976425407252
20
240.59866418969577
30
0
40
3.4015687472782474
210
0
220
0
230
-1
0
LWPOLYLINE
5
282
100
AcDbEntity
8
INTERIOR_PROFILES
100
AcDbPolyline
90
6
70
1
43
0.0
10
67.208073886449256
20
141.75702126521483
10
70.192393335244034
20
143.51595202779336
10
70.161274335750491
20
146.97991386474689
10
67.145835887462141
20
148.68494493912189
10
64.161516438667348
20
146.92601417654333
10
64.192635438160892
20
143.4620523395898
0
CIRCLE
5
283
100
AcDbEntity
8
INTERIOR_PROFILES
100
AcDbCircle
10
-257.88531489056533
20
136.41874587675591
30
0
40
3.5539999999999949
210
0
220
0
230
-1
0
LWPOLYLINE
5
284
100
AcDbEntity
8
INTERIOR_PROFILES
100
AcDbPolyline
90
6
70
1
43
0.0
10
128.93967677203975
20
134.80573963612969
10
125.9242383237514
20
136.51077071050469
10
122.93991887495662
20
134.75183994792613
10
122.97103787445016
20
131.2878781109726
10
125.98647632273851
20
129.5828470365976
10
128.97079577153329
20
131.34177779917616
0
LWPOLYLINE
5
285
100
AcDbEntity
8
INTERIOR_PROFILES
100
AcDbPolyline
90
6
70
1
43
0.0
10
130.3870593028679
20
122.11652394245635
10
130.41817830236147
20
118.65256210550285
10
133.4336167506498
20
116.94753103112785
10
136.4179361994446
20
118.70646179370638
10
136.38681719995103
20
122.17042363065993
10
133.37137875166269
20
123.87545470503491
0
LWPOLYLINE
5
286
100
AcDbEntity
8
INTERIOR_PROFILES
100
AcDbPolyline
90
6
70
1
43
0.0
10
67.999189650766056
20
127.90716277164549
10
68.030308650259599
20
124.44320093469196
10
71.045747098547949
20
122.73816986031697
10
74.030066547342713
20
124.49710062289552
10
73.998947547849184
20
127.96106245984903
10
70.983509099560848
20
129.66609353422405
0
LWPOLYLINE
5
287
100
AcDbEntity
8
INTERIOR_PROFILES
100
AcDbPolyline
90
6
70
1
43
0.0
10
119.24746766049451
20
137.60553611370747
10
122.26290610878286
20
135.90050503933247
10
125.24722555757764
20
137.65943580191103
10
125.21610655808409
20
141.12339763886456
10
122.20066810979574
20
142.82842871323956
10
119.21634866100095
20
141.069497950661
0
CIRCLE
5
288
100
AcDbEntity
8
INTERIOR_PROFILES
100
AcDbCircle
10
-257.87870711719313
20
32.067482635568055
30
0
40
3.5540000000000127
210
0
220
0
230
-1
0
LWPOLYLINE
5
289
100
AcDbEntity
8
INTERIOR_PROFILES
100
AcDbPolyline
90
6
70
1
43
0.0
10
67.259938885605166
20
135.98375153695889
10
64.275619436810388
20
134.22482077438036
10
64.306738436303931
20
130.76085893742683
10
67.322176884592281
20
129.05582786305186
10
70.306496333387059
20
130.81475862563039
10
70.275377333893516
20
134.27872046258392
0
CIRCLE
5
290
100
AcDbEntity
8
INTERIOR_PROFILES
100
AcDbCircle
10
-257.88531489056481
20
206.05116190166052
30
0
40
3.5539999999999949
210
0
220
0
230
-1
0
CIRCLE
5
291
100
AcDbEntity
8
INTERIOR_PROFILES
100
AcDbCircle
10
-213.12550331071293
20
241.86231908082644
30
0
40
3.5539999999999949
210
0
220
0
230
-1
0
CIRCLE
5
292
100
AcDbEntity
8
INTERIOR_PROFILES
100
AcDbCircle
10
-257.86019634883849
20
101.64481275229875
30
0
40
3.5539999999999949
210
0
220
0
230
-1
0
CIRCLE
5
293
100
AcDbEntity
8
INTERIOR_PROFILES
100
AcDbCircle
10
-257.8787071171929
20
66.885452740901769
30
0
40
3.5539999999999949
210
0
220
0
230
-1
0
CIRCLE
5
294
100
AcDbEntity
8
INTERIOR_PROFILES
100
AcDbCircle
10
-257.88531489056516
20
171.24259831155666
30
0
40
3.5539999999999949
210
0
220
0
230
-1
0
LWPOLYLINE
5
295
100
AcDbEntity
8
INTERIOR_PROFILES
100
AcDbPolyline
90
7
70
1
43
0.0
10
88.867026012827338
20
78.963613033845718
10
90.65136002106459
20
78.963613033845732
10
92.762020615264021
20
80.207617207058135
10
92.730901615770463
20
83.671579044011665
10
89.715463167482113
20
85.376610118386665
10
86.731143718687335
20
83.617679355808121
10
86.762262718180878
20
80.153717518854563
0
LWPOLYLINE
5
296
100
AcDbEntity
8
INTERIOR_PROFILES
100
AcDbPolyline
90
6
70
1
43
0.0
10
141.70299194237145
20
86.998394695135218
10
144.71843039065982
20
85.293363620760232
10
147.70274983945458
20
87.052294383338761
10
147.67163083996104
20
90.51625622029232
10
144.6561923916727
20
92.221287294667306
10
141.67187294287788
20
90.462356532088748
0
LWPOLYLINE
5
297
100
AcDbEntity
8
INTERIOR_PROFILES
100
AcDbPolyline
90
6
70
1
43
0.0
10
141.10896317484719
20
78.909828221332134
10
144.09328262364195
20
80.668758983910664
10
144.06216362414841
20
84.132720820864208
10
141.04672517586008
20
85.837751895239208
10
138.06240572706528
20
84.078821132660664
10
138.09352472655883
20
80.614859295707134
0
LWPOLYLINE
5
298
100
AcDbEntity
8
INTERIOR_PROFILES
100
AcDbPolyline
90
6
70
1
43
0.0
10
112.3397232238048
20
90.198846945315864
10
112.37084222329834
20
86.734885108362349
10
115.38628067158669
20
85.029854033987363
10
118.37060012038148
20
86.788784796565878
10
118.33948112088792
20
90.252746633519422
10
115.3240426725996
20
91.957777707894422
0
LWPOLYLINE
5
299
100
AcDbEntity
8
INTERIOR_PROFILES
100
AcDbPolyline
90
4
70
1
43
0.0
10
155.28167371823233
20
104.59389931777335
10
155.28167371823233
20
111.25229409990095
10
152.50027459031577
20
109.61296273037306
10
152.53139358980934
20
106.14900089341953
0
LWPOLYLINE
5
300
100
AcDbEntity
8
INTERIOR_PROFILES
100
AcDbPolyline
90
6
70
1
43
0.0
10
148.2656596074853
20
98.60482269409539
10
145.28134015869051
20
96.845891931516874
10
145.31245915818405
20
93.38193009456333
10
148.32789760647242
20
91.676899020188344
10
151.31221705526718
20
93.435829782766874
10
151.28109805577364
20
96.899791619720403
0
LWPOLYLINE
5
301
100
AcDbEntity
8
INTERIOR_PROFILES
100
AcDbPolyline
90
6
70
1
43
0.0
10
82.893470506588642
20
102.63653076070598
10
82.924589506082214
20
99.172568923752465
10
85.940027954370549
20
97.46753784937745
10
88.924347403165342
20
99.226468611955994
10
88.893228403671785
20
102.69043044890952
10
85.877789955383435
20
104.39546152328452
0
LWPOLYLINE
5
302
100
AcDbEntity
8
INTERIOR_PROFILES
100
AcDbPolyline
90
6
70
1
43
0.0
10
103.59042226270191
20
99.358223405342429
10
103.55930326320834
20
102.82218524229594
10
100.54386481492001
20
104.52721631667096
10
97.559545366125207
20
102.76828555409242
10
97.59066436561875
20
99.304323717138899
10
100.60610281390711
20
97.599292642763885
0
LWPOLYLINE
5
303
100
AcDbEntity
8
INTERIOR_PROFILES
100
AcDbPolyline
90
6
70
1
43
0.0
10
112.22562022566174
20
102.90004034747886
10
112.25673922515531
20
99.436078510525334
10
115.27217767344366
20
97.731047436150334
10
118.25649712223844
20
99.489978198728863
10
118.2253781227449
20
102.95394003568241
10
115.20993967445655
20
104.65897111005739
0
LWPOLYLINE
5
304
100
AcDbEntity
8
INTERIOR_PROFILES
100
AcDbPolyline
90
7
70
1
43
0.0
10
114.76113290456885
20
80.40524939713778
10
114.73001390507531
20
83.86921123409131
10
111.71457545678695
20
85.574242308466339
10
108.73025600799217
20
83.815311545887766
10
108.76137500748571
20
80.351349708934237
10
111.21566137742521
20
78.963613033845689
10
112.31515633255455
20
78.963613033845675
0
LWPOLYLINE
5
305
100
AcDbEntity
8
INTERIOR_PROFILES
100
AcDbPolyline
90
6
70
1
43
0.0
10
126.21468231902455
20
104.18046023227166
10
129.19900176781934
20
105.93939099485019
10
129.1678827683258
20
109.40335283180372
10
126.15244432003746
20
111.10838390617872
10
123.16812487124267
20
109.34945314360019
10
123.19924387073621
20
105.88549130664666
0
LWPOLYLINE
5
306
100
AcDbEntity
8
INTERIOR_PROFILES
100
AcDbPolyline
90
6
70
1
43
0.0
10
81.705412971540085
20
86.459397813099784
10
81.674293972046542
20
89.923359650053314
10
78.658855523758206
20
91.628390724428343
10
75.674536074963413
20
89.86945996184977
10
75.705655074456956
20
86.405498124896255
10
78.721093522745292
20
84.700467050521269
0
LWPOLYLINE
5
307
100
AcDbEntity
8
INTERIOR_PROFILES
100
AcDbPolyline
90
6
70
1
43
0.0
10
132.89145298228146
20
103.08569482906884
10
129.8760145339931
20
104.79072590344384
10
126.89169508519832
20
103.0317951408653
10
126.92281408469186
20
99.567833303911769
10
129.93825253298021
20
97.862802229536783
10
132.92257198177501
20
99.621732992115312
0
LWPOLYLINE
5
308
100
AcDbEntity
8
INTERIOR_PROFILES
100
AcDbPolyline
90
6
70
1
43
0.0
10
67.664485879021356
20
90.952247656562918
10
70.648805327816163
20
92.711178419141461
10
70.617686328322606
20
96.175140256094977
10
67.602247880034255
20
97.880171330469992
10
64.617928431239463
20
96.121240567891448
10
64.64904743073302
20
92.657278730937932
0
LWPOLYLINE
5
309
100
AcDbEntity
8
INTERIOR_PROFILES
100
AcDbPolyline
90
6
70
1
43
0.0
10
68.227395647052091
20
102.50477596731955
10
68.258514646545649
20
99.040814130366016
10
71.273953094833985
20
97.33578305599103
10
74.258272543628777
20
99.094713818569574
10
74.22715354413522
20
102.55867565552307
10
71.211715095846884
20
104.26370672989808
0
LWPOLYLINE
5
310
100
AcDbEntity
8
INTERIOR_PROFILES
100
AcDbPolyline
90
6
70
1
43
0.0
10
89.038450401308353
20
86.525275209793037
10
89.00733140181481
20
89.989237046746538
10
85.991892953526474
20
91.694268121121524
10
83.007573504731653
20
89.935337358542995
10
83.038692504225224
20
86.471375521589451
10
86.054130952513574
20
84.766344447214465
0
LWPOLYLINE
5
311
100
AcDbEntity
8
INTERIOR_PROFILES
100
AcDbPolyline
90
6
70
1
43
0.0
10
82.330560738557921
20
91.084002449949367
10
85.314880187352728
20
92.842933212527896
10
85.28376118785917
20
96.306895049481426
10
82.268322739570834
20
98.011926123856412
10
79.284003290776027
20
96.252995361277868
10
79.315122290269585
20
92.789033524324367
0
LWPOLYLINE
5
312
100
AcDbEntity
8
INTERIOR_PROFILES
100
AcDbPolyline
90
7
70
1
43
0.0
10
85.428983185495753
20
80.141739810364925
10
85.397864186002181
20
83.605701647318455
10
82.382425737713859
20
85.310732721693441
10
79.398106288919053
20
83.551801959114897
10
79.42922528841261
20
80.087840122161381
10
81.417480891294716
20
78.963613033845732
10
83.43009458390128
20
78.963613033845746
0
LWPOLYLINE
5
313
100
AcDbEntity
8
INTERIOR_PROFILES
100
AcDbPolyline
90
6
70
1
43
0.0
10
105.03780479353006
20
86.66900771166911
10
108.05324324181841
20
84.963976637294124
10
111.0375626906132
20
86.722907399872668
10
111.00644369111964
20
90.186869236826212
10
107.99100524283131
20
91.891900311201198
10
105.00668579403651
20
90.132969548622668
0
LWPOLYLINE
5
314
100
AcDbEntity
8
INTERIOR_PROFILES
100
AcDbPolyline
90
6
70
1
43
0.0
10
149.00491037264618
20
90.528233928781972
10
149.03602937213972
20
87.064272091828428
10
152.05146782042806
20
85.359241017453456
10
155.03578726922288
20
87.118171780031986
10
155.00466826972931
20
90.582133616985516
10
151.98922982144097
20
92.28716469136053
0
LWPOLYLINE
5
315
100
AcDbEntity
8
INTERIOR_PROFILES
100
AcDbPolyline
90
6
70
1
43
0.0
10
129.28198576646881
20
96.702159429640744
10
126.26654731818049
20
98.407190504015745
10
123.28222786938568
20
96.648259741437215
10
123.31334686887925
20
93.184297904483657
10
126.32878531716759
20
91.479266830108671
10
129.31310476596238
20
93.238197592687214
0
LWPOLYLINE
5
316
100
AcDbEntity
8
INTERIOR_PROFILES
100
AcDbPolyline
90
7
70
1
43
0.0
10
136.72912619438011
20
84.066843424170997
10
133.71368774609178
20
85.771874498545984
10
130.72936829729699
20
84.01294373596744
10
130.76048729679056
20
80.54898189901391
10
133.56429674202309
20
78.963613033845675
10
133.97895264404445
20
78.963613033845661
10
136.76024519387369
20
80.602881587217453
0
LWPOLYLINE
5
317
100
AcDbEntity
8
INTERIOR_PROFILES
100
AcDbPolyline
90
6
70
1
43
0.0
10
96.934397599107385
20
98.143680917242875
10
93.950078150312564
20
96.384750154664331
10
93.981197149806121
20
92.920788317710787
10
96.996635598094485
20
91.215757243335801
10
99.980955046889264
20
92.974688005914331
10
99.949836047395706
20
96.438649842867861
0
LWPOLYLINE
5
318
100
AcDbEntity
8
INTERIOR_PROFILES
100
AcDbPolyline
90
6
70
1
43
0.0
10
70.503583330179566
20
108.87633365825798
10
67.48814488189123
20
110.58136473263296
10
64.503825433096452
20
108.82243397005442
10
64.534944432590009
20
105.35847213310089
10
67.550382880878331
20
103.65344105872592
10
70.534702329673124
20
105.41237182130445
0
LWPOLYLINE
5
319
100
AcDbEntity
8
INTERIOR_PROFILES
100
AcDbPolyline
90
6
70
1
43
0.0
10
63.284648898554323
20
96.109262859401781
10
60.269210450265973
20
97.814293933776767
10
60.077956777559493
20
97.701570757135812
10
60.077956777559493
20
91.029703040407213
10
60.331448449253088
20
90.886370259869707
10
63.315767898047866
20
92.645301022448223
0
LWPOLYLINE
5
320
100
AcDbEntity
8
INTERIOR_PROFILES
100
AcDbPolyline
90
6
70
1
43
0.0
10
119.67276065357308
20
90.264724342009103
10
119.70387965306662
20
86.800762505055559
10
122.71931810135497
20
85.095731430680559
10
125.70363755014975
20
86.854662193259117
10
125.67251855065621
20
90.318624030212646
10
122.65708010236786
20
92.023655104587633
0
LWPOLYLINE
5
321
100
AcDbEntity
8
INTERIOR_PROFILES
100
AcDbPolyline
90
6
70
1
43
0.0
10
61.651085015010395
20
78.895707386954911
10
63.429870896190899
20
79.944107620285251
10
63.398751896697348
20
83.408069457238781
10
60.383313448408998
20
85.113100531613782
10
60.077956777559507
20
84.933126084798886
10
60.077956777559521
20
78.895707386954896
0
LWPOLYLINE
5
322
100
AcDbEntity
8
INTERIOR_PROFILES
100
AcDbPolyline
90
6
70
1
43
0.0
10
108.61615300984914
20
96.516504948050752
10
108.64727200934269
20
93.052543111097222
10
111.66271045763104
20
91.34751203672225
10
114.64702990642581
20
93.106442799300766
10
114.61591090693226
20
96.570404636254324
10
111.60047245864394
20
98.275435710629296
0
LINE
5
323
100
AcDbEntity
8
BEND
100
AcDbLine
10
171.18468391018595
20
0
30
-2.0635934760341681e-13
11
171.18468391018479
21
261.39999999999992
31
-2.6941433016083142e-13
0
LINE
5
324
100
AcDbEntity
8
BEND
100
AcDbLine
10
270.45551896666586
20
3.1974423109204508e-13
30
2.7083085632211191e-12
11
270.45551896666461
21
261.40000000000049
31
2.6646240412722876e-12
0
LINE
5
325
100
AcDbEntity
8
BEND_EXTENT
100
AcDbLine
10
272.65520105618549
20
3.1999999876061125
30
2.748984020165157e-12
11
272.65520105618555
21
2.8421709430404007e-13
31
5.0147893025017943e-10
0
LINE
5
326
100
AcDbEntity
8
BEND_EXTENT
100
AcDbLine
10
272.6552010561843
20
261.39999999999981
30
2.6956933149831511e-12
11
272.65520105618549
21
3.1999999876061125
31
2.748984020165157e-12
0
LINE
5
327
100
AcDbEntity
8
BEND_EXTENT
100
AcDbLine
10
268.25583687714607
20
3.1999999876059704
30
2.7189731577610951e-12
11
268.25583687755454
21
2.4868995751603507e-13
31
2.887657150063829e-10
0
LINE
5
328
100
AcDbEntity
8
BEND_EXTENT
100
AcDbLine
10
268.25583687714607
20
3.1999999876059704
30
2.7189731577610951e-12
11
268.25583687714482
21
261.39999999999981
31
2.6479188841850863e-12
0
LINE
5
329
100
AcDbEntity
8
BEND_EXTENT
100
AcDbLine
10
172.58448160351668
20
3.1999999876056151
30
-1.6310950998351139e-13
11
172.58448160392521
21
3.5527136788005009e-14
31
2.8588363233863831e-10
0
LINE
5
330
100
AcDbEntity
8
BEND_EXTENT
100
AcDbLine
10
172.58448160351551
20
261.39999999999998
30
-2.1640021516551747e-13
11
172.58448160351668
21
3.1999999876056151
31
-1.6310950998351139e-13
0
LINE
5
331
100
AcDbEntity
8
BEND_EXTENT
100
AcDbLine
10
169.78488621685517
20
3.1999999876055085
30
-1.7490606405345581e-14
11
169.78488621735391
21
7.1054273576010019e-14
31
-1.7490606405970927e-14
0
LINE
5
332
100
AcDbEntity
8
BEND_EXTENT
100
AcDbLine
10
169.78488621685517
20
3.1999999876055085
30
-1.7490606405345581e-14
11
169.78488621685403
21
261.39999999999998
31
-1.749060640534413e-14
0
ENDSEC
0
SECTION
2
OBJECTS
0
DICTIONARY
5
C
100
AcDbDictionary
3
ACAD_GROUP
350
D
3
ACAD_MLINESTYLE
350
17
0
DICTIONARY
5
D
100
AcDbDictionary
0
DICTIONARY
5
1A
330
C
100
AcDbDictionary
0
DICTIONARY
5
17
100
AcDbDictionary
0
ENDSEC
0
EOF
